<?xml version="1.0" encoding="UTF-8" standalone="no"?>
<svg
   xmlns:dc="http://purl.org/dc/elements/1.1/"
   xmlns:cc="http://creativecommons.org/ns#"
   xmlns:rdf="http://www.w3.org/1999/02/22-rdf-syntax-ns#"
   xmlns:svg="http://www.w3.org/2000/svg"
   xmlns="http://www.w3.org/2000/svg"
   xmlns:sodipodi="http://sodipodi.sourceforge.net/DTD/sodipodi-0.dtd"
   xmlns:inkscape="http://www.inkscape.org/namespaces/inkscape"
   version="1.0"
   width="1600px"
   height="558px"
   viewBox="0 0 16000 5580"
   preserveAspectRatio="xMidYMid meet"
   id="svg245"
   sodipodi:docname="aiplus-vector.svg"
   inkscape:version="0.92.2 5c3e80d, 2017-08-06">
  <metadata
     id="metadata251">
    <rdf:RDF>
      <cc:Work
         rdf:about="">
        <dc:format>image/svg+xml</dc:format>
        <dc:type
           rdf:resource="http://purl.org/dc/dcmitype/StillImage" />
        <dc:title></dc:title>
      </cc:Work>
    </rdf:RDF>
  </metadata>
  <defs
     id="defs249" />
  <sodipodi:namedview
     pagecolor="#ffffff"
     bordercolor="#666666"
     borderopacity="1"
     objecttolerance="10"
     gridtolerance="10"
     guidetolerance="10"
     inkscape:pageopacity="0"
     inkscape:pageshadow="2"
     inkscape:window-width="1440"
     inkscape:window-height="855"
     id="namedview247"
     showgrid="false"
     inkscape:measure-start="0,0"
     inkscape:measure-end="0,0"
     inkscape:zoom="0.405"
     inkscape:cx="823.02261"
     inkscape:cy="378.72925"
     inkscape:window-x="0"
     inkscape:window-y="1"
     inkscape:window-maximized="1"
     inkscape:current-layer="svg245" />
  <g
     id="g1252">
    <path
       d="m 2538,5565 c -2,-2 -28,-5 -58,-9 -206,-21 -326,-46 -530,-111 -199,-64 -221,-73 -412,-165 -117,-56 -301,-169 -413,-255 -132,-100 -346,-301 -453,-425 -60,-69 -129,-156 -147,-185 -11,-16 -32,-46 -46,-65 -27,-34 -58,-84 -79,-125 -6,-11 -23,-42 -40,-70 -44,-74 -150,-294 -150,-310 0,-4 -6,-21 -14,-38 -25,-57 -66,-165 -66,-176 0,-6 -13,-57 -29,-113 C 59,3368 42,3282 24,3125 0,2928 1,2603 24,2440 c 2,-8 6,-40 10,-70 10,-82 34,-193 67,-307 16,-57 29,-108 29,-114 0,-11 40,-119 66,-176 8,-17 14,-34 14,-38 0,-16 106,-236 150,-310 17,-27 35,-59 40,-70 20,-38 36,-63 50,-80 8,-9 19,-25 25,-35 88,-149 327,-415 514,-574 132,-112 153,-128 376,-272 81,-52 311,-165 408,-200 222,-79 394,-126 552,-150 55,-8 114,-17 130,-20 17,-3 132,-8 256,-11 176,-4 261,-2 380,11 146,16 184,23 356,60 69,15 254,74 358,114 130,49 313,140 412,205 24,15 45,27 48,27 10,0 169,113 230,163 136,111 165,137 269,242 94,96 229,252 276,321 8,12 34,49 58,84 23,34 42,64 42,68 0,4 14,25 30,46 50,66 49,66 -128,66 h -159 l -14,-28 c -56,-111 -306,-389 -478,-533 -92,-77 -236,-180 -309,-221 -21,-11 -71,-40 -112,-63 -41,-23 -100,-53 -130,-65 -30,-13 -59,-27 -64,-32 -6,-4 -16,-8 -23,-8 -7,0 -32,-8 -56,-19 -104,-46 -197,-74 -417,-125 -125,-29 -306,-46 -495,-46 -357,0 -714,74 -1010,210 -22,10 -60,27 -85,38 -25,12 -72,37 -105,56 -33,20 -70,40 -82,45 -21,9 -56,33 -213,142 -126,88 -345,299 -462,444 -54,67 -188,260 -188,270 0,3 -10,22 -23,43 -40,64 -98,174 -124,237 -13,33 -33,79 -44,102 -10,24 -19,47 -19,53 0,6 -4,18 -9,28 -29,58 -101,340 -121,472 -15,101 -31,379 -26,435 3,28 8,93 11,145 12,191 66,445 135,635 52,142 136,320 197,417 13,21 23,40 23,43 0,10 134,203 188,270 82,103 244,266 351,356 92,77 279,210 324,230 12,5 49,25 82,45 56,32 82,46 190,94 226,101 474,168 722,195 244,28 590,14 783,-31 220,-51 313,-79 417,-125 24,-11 49,-19 56,-19 7,0 17,-4 22,-8 6,-5 35,-19 65,-32 30,-12 89,-42 130,-65 41,-23 91,-52 112,-63 73,-42 218,-144 309,-221 175,-146 421,-421 478,-533 l 14,-28 h 159 c 177,0 178,0 128,66 -16,21 -30,42 -30,46 0,4 -19,34 -42,68 -24,35 -50,72 -58,84 -47,69 -186,231 -274,319 -133,135 -414,367 -443,367 -6,0 -18,9 -28,20 -10,11 -22,20 -27,20 -5,0 -27,12 -51,27 -91,60 -378,203 -405,203 -4,0 -34,11 -67,24 -126,50 -218,76 -435,121 -137,29 -354,46 -562,44 -114,0 -208,-2 -210,-4 z"
       id="path2"
       inkscape:connector-curvature="0"
       style="fill:#4d4d4d;stroke:none;fill-opacity:1" />
    <path
       d="m 5675,3803 c 4,-10 14,-40 23,-68 8,-27 21,-72 29,-100 30,-97 82,-351 89,-427 l 7,-78 h 139 c 128,0 139,1 134,18 -3,9 -12,69 -21,132 -14,107 -59,323 -85,415 -6,22 -16,59 -21,83 l -11,42 h -145 c -134,0 -145,-1 -138,-17 z"
       id="path4"
       inkscape:connector-curvature="0"
       style="fill:#a6a6a6;stroke:none;fill-opacity:1" />
    <path
       d="m 6250,3797 c 0,-13 11,-61 25,-108 14,-46 34,-133 45,-194 10,-60 24,-135 29,-165 12,-66 17,-114 32,-330 15,-226 -1,-556 -37,-760 -8,-47 -19,-108 -24,-136 -4,-28 -22,-107 -39,-176 -17,-69 -31,-132 -31,-141 0,-15 16,-17 130,-17 149,0 136,-8 165,106 41,166 78,382 91,534 3,36 7,83 10,105 2,22 4,143 4,269 0,231 -18,478 -45,636 -34,198 -47,259 -67,328 l -22,72 h -133 c -133,0 -133,0 -133,-23 z"
       id="path6"
       inkscape:connector-curvature="0"
       style="fill:#a6a6a6;stroke:none;fill-opacity:1" />
    <path
       d="m 6815,3778 c 4,-24 15,-77 26,-118 25,-98 67,-384 77,-513 11,-159 7,-671 -6,-777 -21,-169 -52,-350 -82,-489 -11,-52 -20,-98 -20,-103 0,-4 58,-8 130,-8 146,0 142,-2 160,87 32,154 73,427 84,563 21,246 14,688 -15,900 -20,151 -59,377 -75,438 l -17,62 h -134 -135 z"
       id="path8"
       inkscape:connector-curvature="0"
       style="fill:#a6a6a6;stroke:none;fill-opacity:1" />
    <path
       d="m 7369,3326 c -3,-4 -2,-30 2,-59 35,-234 36,-601 2,-936 l -6,-64 69,6 c 250,21 431,188 479,440 20,105 7,200 -41,306 -27,58 -51,91 -112,150 -79,79 -134,111 -226,135 -67,18 -159,30 -167,22 z"
       id="path10"
       inkscape:connector-curvature="0"
       style="fill:#a6a6a6;stroke:none;fill-opacity:1" />
    <path
       d="m 5820,2433 c 0,-41 -25,-205 -40,-263 -5,-19 -16,-66 -26,-105 -20,-84 -40,-152 -65,-223 -10,-29 -19,-57 -19,-63 0,-6 53,-9 142,-7 l 142,3 9,30 c 44,150 87,341 107,485 11,74 22,145 25,158 l 5,22 h -140 -140 z"
       id="path12"
       inkscape:connector-curvature="0"
       style="fill:#a6a6a6;stroke:none;fill-opacity:1" />
    <path
       d="m 8995,3849 c -151,-19 -311,-79 -444,-167 -84,-55 -220,-196 -275,-285 -60,-96 -119,-237 -141,-337 -25,-114 -31,-335 -11,-449 67,-384 318,-692 664,-815 258,-92 596,-70 842,54 70,35 215,139 260,185 l 34,35 -49,50 c -27,28 -53,50 -57,50 -4,0 -33,-23 -65,-51 -185,-164 -380,-239 -623,-239 -94,0 -147,5 -206,20 -198,51 -380,177 -493,343 -50,73 -117,223 -137,307 -101,428 78,867 436,1067 242,135 581,135 824,-1 76,-43 174,-114 236,-172 l 46,-43 50,50 49,51 -65,60 c -243,223 -558,326 -875,287 z"
       id="path61"
       inkscape:connector-curvature="0"
       style="fill:#a6a6a6;stroke:none;fill-opacity:1" />
    <path
       d="m 12760,3831 c -298,-64 -500,-253 -585,-548 -39,-135 -46,-280 -43,-923 l 3,-585 h 75 75 l 6,690 c 6,776 3,744 83,910 120,245 369,365 699,334 240,-23 411,-139 507,-344 75,-159 73,-139 77,-907 l 4,-688 h 75 75 l -3,693 -4,692 -26,97 c -47,173 -141,327 -259,425 -79,65 -220,131 -331,153 -122,26 -310,26 -428,1 z"
       id="path63"
       inkscape:connector-curvature="0"
       style="fill:#a6a6a6;stroke:none;fill-opacity:1" />
    <path
       d="m 1190,3810 c 0,-7 38,-98 84,-204 46,-105 170,-389 276,-631 105,-242 207,-474 225,-515 18,-41 56,-129 85,-195 29,-66 65,-149 81,-185 15,-36 53,-121 83,-190 l 55,-125 168,-3 169,-2 61,142 c 34,79 83,190 108,248 26,58 66,150 90,205 24,55 134,307 245,560 111,253 209,479 218,503 l 16,42 h 268 268 v -845 -845 h 175 175 v 1025 1025 h -553 -553 l -64,-152 c -112,-270 -180,-432 -204,-488 -325,-762 -421,-979 -427,-973 -10,10 -92,201 -359,833 -45,107 -103,245 -129,305 l -47,110 302,3 c 225,2 304,5 312,15 17,22 125,327 118,334 -4,4 -286,9 -626,11 -485,4 -620,2 -620,-8 z"
       id="path65"
       inkscape:connector-curvature="0"
       style="fill:#cc002b;stroke:none;fill-opacity:1" />
    <path
       d="m 5080,3814 c 0,-3 20,-57 45,-120 78,-197 137,-448 161,-686 l 6,-68 h -396 -396 v -145 -145 h 396 397 l -7,-72 c -25,-269 -96,-547 -201,-790 -7,-17 4,-18 143,-18 133,0 151,2 157,18 82,201 141,467 181,820 l 5,42 h 325 324 v 145 145 h -324 -324 l -6,23 c -3,12 -6,38 -6,57 -1,158 -112,644 -177,773 l -14,27 h -144 c -80,0 -145,-3 -145,-6 z"
       id="path67"
       inkscape:connector-curvature="0"
       style="fill:#cc002b;stroke:none;fill-opacity:1" />
    <path
       d="M 10360,2795 V 1770 h 75 75 v 955 955 h 600 600 v 70 70 h -675 -675 z"
       id="path71"
       inkscape:connector-curvature="0"
       style="fill:#a6a6a6;stroke:none;fill-opacity:1" />
    <path
       d="M 14380,2795 V 1769 l 498,3 c 475,4 501,5 577,26 220,61 363,181 410,346 13,46 16,86 13,172 -4,106 -6,117 -42,189 -47,95 -120,170 -218,224 -45,25 -67,42 -58,45 170,60 222,88 301,163 108,103 151,237 130,402 -28,220 -188,378 -456,453 -77,21 -98,22 -617,26 l -538,3 z m 1088,869 c 165,-33 288,-120 346,-244 27,-57 30,-76 30,-155 1,-78 -3,-98 -28,-153 -62,-134 -203,-216 -416,-242 -46,-5 -261,-10 -477,-10 h -393 v 410 410 h 430 c 353,0 445,-3 508,-16 z m -58,-968 c 216,-71 320,-200 320,-397 0,-114 -26,-178 -104,-254 -72,-72 -150,-108 -270,-124 -44,-6 -238,-11 -452,-11 h -374 v 406 405 l 413,-3 c 364,-4 418,-6 467,-22 z"
       id="path73"
       inkscape:connector-curvature="0"
       style="fill:#a6a6a6;stroke:none;fill-opacity:1" />
  </g>
</svg>
