<?xml version="1.0" encoding="utf-8"?>
<svg viewBox="1.922739863395691 2.6125049591064453 261.38042175769806 192.25115776062012" width="261.38042175769806" height="192.25115776062012" xmlns="http://www.w3.org/2000/svg">
  <g transform="matrix(1, 0, 0, 1, 1.7763568394002505e-15, 0)">
    <g id="g9" transform="matrix(1.210985, 0, 0, 1.210985, -683.214111, -408.519623)">
      <text id="text11" style="font-size: 50px; line-height: 0%; font-family: Lato-Regular, Lato, sans-serif; fill: rgb(214, 216, 222); white-space: pre;" y="464.20901" x="654.383">CL<tspan id="tspan13" y="464.20901" x="712.15802">U</tspan>B</text>
    </g>
    <g id="g15" transform="matrix(1.210985, 0, 0, 1.210985, 114.524048, 99.405205)">
      <g id="g17" transform="translate(43.6704,-1.1625)">
        <path id="path19" style="fill:#e94f64;fill-rule:nonzero" d="M 26.5,-15.1 H 16.3 V -4.35 H 12.675 V -15.1 H 2.525 v -3.375 h 10.15 V -29.15 H 16.3 v 10.675 h 10.2 z"/>
      </g>
      <path id="path21" style="fill:#e94f64;fill-rule:nonzero" d="m 23.6,-13.3 -5.625,-14.575 c -0.167,-0.433 -0.342,-0.938 -0.525,-1.513 -0.183,-0.574 -0.358,-1.187 -0.525,-1.837 -0.35,1.35 -0.708,2.475 -1.075,3.375 L 10.225,-13.3 Z M 33.7,0 H 29.95 C 29.517,0 29.167,-0.108 28.9,-0.325 28.633,-0.542 28.433,-0.817 28.3,-1.15 L 24.95,-9.8 H 8.875 l -3.35,8.65 c -0.1,0.3 -0.292,0.567 -0.575,0.8 C 4.667,-0.117 4.317,0 3.9,0 H 0.15 l 14.325,-35.825 h 4.9 z"/>
      <g id="g23" transform="translate(-591.305,-422.544)"/>
      <g id="g27" transform="translate(-3.3833)">
        <rect id="rect29" style="fill:#e94f64;fill-rule:nonzero" height="35.825001" width="4.8499999" y="-35.825001" x="39.945751"/>
      </g>
    </g>
    <g id="Face" transform="matrix(1.210985, 0, 0, 1.210985, -612.515442, -419.676147)">
      <path id="path735" style="fill:#ffffff;stroke:#e6e6e6;stroke-width:0.34752271px" d="m 571.43,356.896 c 1.36,7.588 -2.597,30.261 -1.659,41.796 0.275,3.387 2.846,5.518 4.448,8.628 2.677,5.198 6.176,10.976 8.025,18.311 1.64,6.505 1.553,14.812 0.387,20.781 -0.689,3.528 -0.975,7.268 -0.448,10.401 1.204,7.155 4.264,12.069 13.13,22.233 0.649,0.745 1.601,3.475 0.693,6.11 -1.021,2.963 -4.219,5.973 -6.517,7.032 -11.57,5.327 -32.884,13.23 -52.694,14.966 -3.618,0.317 -7.241,-1.703 -8.438,-2.894 -5.138,-3.676 -0.837,-15.907 -2.711,-15.361 -0.955,0.278 -5.004,-0.429 -5.333,-3.306 -0.175,-1.52 2.343,-4.622 2.343,-4.622 0,0 -7.407,-2.892 -7.031,-6.726 0.132,-1.347 2.209,-2.299 2.583,-2.992 1.037,-1.916 0.658,-5.018 0.312,-6.141 0.278,-0.38 -11.133,-5.018 -10.301,-8.934 0.443,-2.084 2.911,-5.61 5.825,-9.14 3.482,-4.219 7.17,-8.679 8.091,-11.1 0.924,-0.811 1.133,-3.127 0.521,-3.057 -2.03,1.067 -8.118,-3.272 -7.031,-3.761 -0.162,0.17 5.498,1.621 6.049,-0.654 0.539,-2.222 -3.038,-8.209 -3.307,-13.512 -0.92,-18.213 17.49,-46.128 34.758,-56.762 4.755,-2.929 8.128,-4.514 12.048,-5.573 3.978,-1.074 5.812,1.79 6.257,4.277"/>
      <g id="g737">
        <path id="path739" style="fill:none;stroke:#ffffff;stroke-width:0.34752271px" d="m 565.863,352.486 c 2.152,-0.66 9.612,-2.669 15.387,-3.267 3.39,-0.351 8.724,-0.504 15.13,0.295 4.72,0.59 10.126,1.452 14.636,2.793 4.309,1.28 8.671,3.031 12.422,5.251 3.703,2.192 7.239,5.16 10.08,8.067 2.722,2.784 5.015,6.122 6.967,9.375 1.921,3.201 3.806,7.829 4.748,10.144"/>
      </g>
      <path id="path741" style="fill:#d9d9d9" d="m 530.478,477.271 c 0,0 -1.13,1.452 -1.779,1.985 -0.629,0.516 -1.423,0.938 -2.117,1.213 -0.65,0.257 -1.493,0.388 -2.049,0.437 -0.432,0.037 -0.879,-0.01 -1.291,-0.144 -0.557,-0.182 -1.423,-0.53 -2.051,-0.945 -0.663,-0.44 -1.927,-1.692 -1.927,-1.692 0,0 1.855,1.056 2.635,1.377 0.652,0.269 1.339,0.519 2.044,0.549 0.737,0.032 1.674,-0.164 2.373,-0.356 0.638,-0.176 1.193,-0.469 1.819,-0.797 0.844,-0.443 2.382,-1.639 2.343,-1.627 z"/>
      <path style="fill:#d9d9d9" d="m 520.954,465.571 c 0.481,0.032 1.182,0.085 1.702,-0.145 0.568,-0.252 1.33,-0.739 1.702,-1.363 0.391,-0.656 0.562,-1.691 0.642,-2.57 0.107,-1.172 0.141,-3.995 0,-4.462 -0.141,-0.466 -0.528,1.203 -0.845,1.664 -0.289,0.42 -0.613,0.944 -1.058,1.104 -0.445,0.159 -1.096,0.01 -1.613,-0.147 -0.617,-0.187 -1.358,-0.802 -2.091,-0.978 -0.733,-0.175 -1.537,-0.052 -2.305,-0.075 -0.873,-0.025 -2.146,0.183 -2.934,-0.078 -0.737,-0.245 -1.418,-0.809 -1.793,-1.49 -0.376,-0.682 -0.418,-2.015 -0.46,-2.601 -0.022,-0.312 0.17,-0.915 0.208,-0.914 0,0 -1.487,1.757 -1.838,2.343 -0.206,0.344 -0.353,0.781 -0.266,1.172 0.111,0.5 0.503,1.295 0.933,1.827 0.496,0.615 1.339,1.341 2.043,1.862 0.677,0.5 1.498,0.868 2.184,1.263 0.645,0.371 1.335,0.736 1.935,1.11 0.571,0.356 1.22,0.781 1.665,1.138 0.37,0.296 0.64,0.78 1.005,1.003 0.35,0.215 0.775,0.31 1.184,0.337 z" id="Nose-Bottom"/>
      <path id="path744" style="fill:#cccccc" d="m 517.399,461.048 c 0.132,-10e-4 0.893,0.462 1.327,0.855 0.417,0.376 0.644,0.664 0.827,0.845 0.485,0.48 0.749,0.906 1.036,1.315 0.173,0.246 0.474,0.455 0.735,0.526 0.262,0.072 0.685,0.068 0.837,-0.098 0.151,-0.166 0.152,-0.633 0.073,-0.9 -0.08,-0.267 -0.322,-0.51 -0.55,-0.7 -0.273,-0.228 -0.709,-0.47 -1.086,-0.664 -0.491,-0.252 -1.329,-0.652 -1.862,-0.848 -0.431,-0.159 -1.337,-0.331 -1.337,-0.331 z"/>
      <path id="path746" style="fill:#f2f2f2" d="m 524.603,428.606 c 1.392,0 4.524,0.005 6.76,0.3 2.468,0.326 5.589,0.843 8.044,1.656 2.349,0.778 5.963,2.612 6.687,3.224 0.607,0.514 -1.602,0.161 -2.344,0.447 -1.562,0.603 -5.034,2.435 -7.031,3.173 -1.598,0.59 -3.444,0.955 -4.955,1.253 -1.356,0.267 -2.983,-0.088 -4.111,0.533 -1.127,0.62 -2.45,2.26 -2.653,3.189 -0.198,0.908 1.633,1.587 1.438,2.389 -0.195,0.801 -1.879,1.549 -2.61,2.421 -0.711,0.849 -2.159,1.77 -1.775,2.809 0.462,1.249 3.742,2.924 4.546,4.688 0.803,1.763 0.034,3.943 0.278,5.895 0.293,2.344 1.012,6.025 1.48,8.167 0.347,1.587 0.718,3.551 1.331,4.688 0.501,0.93 1.767,1.743 2.343,2.134 0.313,0.211 1.113,-0.168 1.113,0.209 0,0.511 -0.955,1.845 -1.113,2.853 -0.23,1.474 0.179,4.583 -0.267,5.989 -0.347,1.09 -1.475,1.963 -2.413,2.442 -0.939,0.48 -2.162,0.584 -3.219,0.435 -1.057,-0.149 -2.625,-0.545 -3.124,-1.327 -0.5,-0.781 -0.206,-2.6 0.126,-3.36 0.296,-0.679 1.143,-0.905 1.866,-1.204 0.957,-0.395 2.509,-1.111 3.357,-1.865 0.839,-0.745 2.242,-2.403 2.019,-2.453 0,0 -0.748,0.619 -1.178,0.834 -0.594,0.297 -1.545,0.776 -2.382,0.95 -0.939,0.195 -2.192,0.46 -3.252,0.222 -1.279,-0.288 -3.349,-1.168 -4.423,-1.949 -0.918,-0.667 -1.829,-2.013 -2.024,-2.739 -0.158,-0.587 0.502,-1.116 0.852,-1.615 0.369,-0.527 1.042,-0.938 1.362,-1.545 0.332,-0.631 0.166,-1.618 0.63,-2.239 0.41,-0.55 1.237,-1.46 1.292,-2.326 0.028,-0.448 -0.299,-1.313 -0.299,-1.313 0,0 1.182,0.085 1.702,-0.145 0.568,-0.252 1.33,-0.739 1.702,-1.363 0.391,-0.656 0.562,-1.691 0.642,-2.57 0.107,-1.172 0.141,-3.995 0,-4.462 -0.141,-0.466 -0.528,1.203 -0.845,1.664 -0.289,0.42 -0.613,0.944 -1.058,1.104 -0.445,0.159 -1.096,0.01 -1.613,-0.147 -0.617,-0.187 -1.358,-0.802 -2.091,-0.978 -0.733,-0.175 -1.537,-0.052 -2.305,-0.075 -0.873,-0.025 -2.146,0.183 -2.934,-0.078 -0.737,-0.245 -1.418,-0.809 -1.793,-1.49 -0.376,-0.682 -0.418,-2.015 -0.46,-2.601 -0.022,-0.312 0.056,-0.641 0.208,-0.914 0.385,-0.691 1.374,-2.187 2.1,-3.228 0.719,-1.032 1.508,-2.013 2.257,-3.022 0.759,-1.025 1.558,-2.137 2.302,-3.125 0.71,-0.944 1.514,-1.926 2.162,-2.808 0.597,-0.812 1.286,-1.785 1.726,-2.483 0.344,-0.544 0.676,-1.103 0.916,-1.7 0.24,-0.597 0.397,-1.246 0.527,-1.886 0.142,-0.698 0.436,-1.765 0.323,-2.302 -0.093,-0.443 -0.655,-0.625 -0.998,-0.92 -0.475,-0.41 -1.66,-1.159 -1.852,-1.535 -0.153,-0.297 0.473,-0.472 0.696,-0.72 0.24,-0.267 0.4,-0.707 0.743,-0.881 0.389,-0.197 1.052,-0.3 1.592,-0.3 z"/>
      <path id="path748" style="fill:#d9d9d9" d="m 528.357,431.25 c 0.161,-0.08 0.728,-0.055 1.397,-0.017 2.029,0.114 5.349,1.061 5.416,1.591 -0.959,-0.429 -5.135,2.392 -4.817,2.439 -0.032,0.018 0.037,-0.181 -0.08,-0.269 -0.322,-0.242 -0.863,-0.717 -1.139,-1.132 -0.31,-0.467 -0.336,-1.676 -0.281,-2.317 0.03,-0.352 -0.496,-0.295 -0.496,-0.295 z"/>
      <path id="path750" style="fill:#e6e6e6" d="m 528.357,504.26 c 1.197,1.191 4.82,3.211 8.438,2.894 19.81,-1.736 41.124,-9.639 52.694,-14.966 2.298,-1.059 5.496,-4.069 6.517,-7.032 0.908,-2.635 -0.044,-5.365 -0.693,-6.11 -4.164,-4.773 -7.047,-8.389 -9.059,-11.622 -2.272,-3.652 -3.432,-6.816 -4.071,-10.611 -0.527,-3.133 -0.241,-6.873 0.448,-10.401 1.166,-5.969 1.253,-14.276 -0.387,-20.781 -1.849,-7.335 -5.348,-13.113 -8.025,-18.311 -1.602,-3.11 -4.173,-5.241 -4.448,-8.628 -0.938,-11.535 3.019,-34.208 1.659,-41.796 -6.384,10.436 -15.264,22.979 -19.153,31.306 -2.696,5.775 -5.198,13.345 -4.18,18.658 1.018,5.314 6.205,9.413 10.289,13.223 4.358,4.065 12.71,7.743 15.859,11.167 2.224,2.418 4.527,6.447 3.038,9.375 -1.957,3.851 -11.115,9.628 -14.783,13.729 -2.901,3.244 -6.815,6.603 -7.223,10.876 -0.408,4.273 4.628,11.049 4.773,14.76 0.111,2.819 -2.56,5.029 -3.903,7.51 -1.523,2.814 -2.828,6.891 -5.235,9.375 -2.407,2.484 -5.882,4.197 -9.205,5.527 -3.412,1.365 -8.406,1.887 -12.163,2.777 z"/>
      <path id="path752" style="fill:#f2f2f2" d="m 562.5,454.354 c -2.901,3.244 -6.815,6.603 -7.223,10.876 -0.408,4.273 4.628,11.049 4.773,14.76 0.111,2.819 -2.56,5.029 -3.903,7.51 -1.523,2.814 -2.828,6.891 -5.235,9.375 -2.407,2.484 -5.882,4.197 -9.205,5.527 -3.412,1.365 -8.908,4.865 -12.157,2.78 -0.435,-0.278 -0.841,-0.578 -1.193,-0.922 0,0 4.705,-1.242 6.573,-2.697 3.449,-2.687 8.949,-8.96 9.375,-14.063 0.427,-5.103 -7.504,-12.159 -6.815,-16.557 0.688,-4.397 6.504,-7.53 10.948,-9.828 8.539,-4.472 14.163,-7.138 14.062,-6.761 z"/>
    </g>
    <g id="g4989" transform="matrix(0.920803, 0, 0, 0.920803, 2.685999, 2.686103)">
      <g transform="matrix(1.31514,0,0,1.31514,-668.114,-458.689)" id="g32">
        <g id="g34" transform="translate(5.03752,2.89389)">
          <path id="path36" style="fill:#e6e6e6" d="m 586.305,393.2 c 0.591,0 1.071,0.46 1.071,1.027 0,0.566 -0.48,1.027 -1.071,1.027 -0.591,0 -1.071,-0.461 -1.071,-1.027 0,-0.567 0.48,-1.027 1.071,-1.027 z m 0,0.628 c 0.229,0 0.415,0.179 0.415,0.399 0,0.22 -0.186,0.398 -0.415,0.398 -0.229,0 -0.415,-0.178 -0.415,-0.398 0,-0.22 0.186,-0.399 0.415,-0.399 z"/>
        </g>
        <g id="g38" transform="translate(1.97619,2.89389)">
          <path id="path40" style="fill:#e6e6e6" d="m 586.305,393.2 c 0.591,0 1.071,0.46 1.071,1.027 0,0.566 -0.48,1.027 -1.071,1.027 -0.591,0 -1.071,-0.461 -1.071,-1.027 0,-0.567 0.48,-1.027 1.071,-1.027 z m 0,0.628 c 0.229,0 0.415,0.179 0.415,0.399 0,0.22 -0.186,0.398 -0.415,0.398 -0.229,0 -0.415,-0.178 -0.415,-0.398 0,-0.22 0.186,-0.399 0.415,-0.399 z"/>
        </g>
        <g id="g42" transform="translate(-1.43817,52.8615)">
          <path id="path44" style="fill:#e6e6e6" d="m 586.305,393.2 c 0.591,0 1.071,0.46 1.071,1.027 0,0.566 -0.48,1.027 -1.071,1.027 -0.591,0 -1.071,-0.461 -1.071,-1.027 0,-0.567 0.48,-1.027 1.071,-1.027 z m 0,0.628 c 0.229,0 0.415,0.179 0.415,0.399 0,0.22 -0.186,0.398 -0.415,0.398 -0.229,0 -0.415,-0.178 -0.415,-0.398 0,-0.22 0.186,-0.399 0.415,-0.399 z"/>
        </g>
        <g id="g46" transform="translate(11.2499,-18.6032)">
          <path id="path48" style="fill:#e6e6e6" d="m 586.305,393.2 c 0.591,0 1.071,0.46 1.071,1.027 0,0.566 -0.48,1.027 -1.071,1.027 -0.591,0 -1.071,-0.461 -1.071,-1.027 0,-0.567 0.48,-1.027 1.071,-1.027 z m 0,0.628 c 0.229,0 0.415,0.179 0.415,0.399 0,0.22 -0.186,0.398 -0.415,0.398 -0.229,0 -0.415,-0.178 -0.415,-0.398 0,-0.22 0.186,-0.399 0.415,-0.399 z"/>
        </g>
        <g id="g50" transform="translate(-1.43817,2.89389)">
          <path id="path52" style="fill:#e6e6e6" d="m 586.305,393.2 c 0.591,0 1.071,0.46 1.071,1.027 0,0.566 -0.48,1.027 -1.071,1.027 -0.591,0 -1.071,-0.461 -1.071,-1.027 0,-0.567 0.48,-1.027 1.071,-1.027 z m 0,0.628 c 0.229,0 0.415,0.179 0.415,0.399 0,0.22 -0.186,0.398 -0.415,0.398 -0.229,0 -0.415,-0.178 -0.415,-0.398 0,-0.22 0.186,-0.399 0.415,-0.399 z"/>
        </g>
        <g id="g54" transform="translate(-0.74498,-5.01924)">
          <path id="path56" style="fill:#e6e6e6" d="m 586.305,393.2 c 0.591,0 1.071,0.46 1.071,1.027 0,0.566 -0.48,1.027 -1.071,1.027 -0.591,0 -1.071,-0.461 -1.071,-1.027 0,-0.567 0.48,-1.027 1.071,-1.027 z m 0,0.628 c 0.229,0 0.415,0.179 0.415,0.399 0,0.22 -0.186,0.398 -0.415,0.398 -0.229,0 -0.415,-0.178 -0.415,-0.398 0,-0.22 0.186,-0.399 0.415,-0.399 z"/>
        </g>
        <g id="g58" transform="translate(3.59304,-9.27953)">
          <path id="path60" style="fill:#e6e6e6" d="m 586.305,393.2 c 0.591,0 1.071,0.46 1.071,1.027 0,0.566 -0.48,1.027 -1.071,1.027 -0.591,0 -1.071,-0.461 -1.071,-1.027 0,-0.567 0.48,-1.027 1.071,-1.027 z m 0,0.628 c 0.229,0 0.415,0.179 0.415,0.399 0,0.22 -0.186,0.398 -0.415,0.398 -0.229,0 -0.415,-0.178 -0.415,-0.398 0,-0.22 0.186,-0.399 0.415,-0.399 z"/>
        </g>
        <g id="g62" transform="translate(5.00714,-11.9482)">
          <path id="path64" style="fill:#e6e6e6" d="m 586.305,393.2 c 0.591,0 1.071,0.46 1.071,1.027 0,0.566 -0.48,1.027 -1.071,1.027 -0.591,0 -1.071,-0.461 -1.071,-1.027 0,-0.567 0.48,-1.027 1.071,-1.027 z m 0,0.628 c 0.229,0 0.415,0.179 0.415,0.399 0,0.22 -0.186,0.398 -0.415,0.398 -0.229,0 -0.415,-0.178 -0.415,-0.398 0,-0.22 0.186,-0.399 0.415,-0.399 z"/>
        </g>
        <g id="g66" transform="translate(5.00714,-15.2702)">
          <path id="path68" style="fill:#e6e6e6" d="m 586.305,393.2 c 0.591,0 1.071,0.46 1.071,1.027 0,0.566 -0.48,1.027 -1.071,1.027 -0.591,0 -1.071,-0.461 -1.071,-1.027 0,-0.567 0.48,-1.027 1.071,-1.027 z m 0,0.628 c 0.229,0 0.415,0.179 0.415,0.399 0,0.22 -0.186,0.398 -0.415,0.398 -0.229,0 -0.415,-0.178 -0.415,-0.398 0,-0.22 0.186,-0.399 0.415,-0.399 z"/>
        </g>
        <g id="g70" transform="translate(9.00744,-10.1678)">
          <path id="path72" style="fill:#e6e6e6" d="m 586.305,393.2 c 0.591,0 1.071,0.46 1.071,1.027 0,0.566 -0.48,1.027 -1.071,1.027 -0.591,0 -1.071,-0.461 -1.071,-1.027 0,-0.567 0.48,-1.027 1.071,-1.027 z m 0,0.628 c 0.229,0 0.415,0.179 0.415,0.399 0,0.22 -0.186,0.398 -0.415,0.398 -0.229,0 -0.415,-0.178 -0.415,-0.398 0,-0.22 0.186,-0.399 0.415,-0.399 z"/>
        </g>
        <g id="g74" transform="translate(10.8802,-11.8312)">
          <path id="path76" style="fill:#e6e6e6" d="m 586.305,393.2 c 0.591,0 1.071,0.46 1.071,1.027 0,0.566 -0.48,1.027 -1.071,1.027 -0.591,0 -1.071,-0.461 -1.071,-1.027 0,-0.567 0.48,-1.027 1.071,-1.027 z m 0,0.628 c 0.229,0 0.415,0.179 0.415,0.399 0,0.22 -0.186,0.398 -0.415,0.398 -0.229,0 -0.415,-0.178 -0.415,-0.398 0,-0.22 0.186,-0.399 0.415,-0.399 z"/>
        </g>
        <g id="g78" transform="translate(8.34375,-18.6032)">
          <path id="path80" style="fill:#e6e6e6" d="m 586.305,393.2 c 0.591,0 1.071,0.46 1.071,1.027 0,0.566 -0.48,1.027 -1.071,1.027 -0.591,0 -1.071,-0.461 -1.071,-1.027 0,-0.567 0.48,-1.027 1.071,-1.027 z m 0,0.628 c 0.229,0 0.415,0.179 0.415,0.399 0,0.22 -0.186,0.398 -0.415,0.398 -0.229,0 -0.415,-0.178 -0.415,-0.398 0,-0.22 0.186,-0.399 0.415,-0.399 z"/>
        </g>
        <g id="g82" transform="translate(13.8031,-11.8312)">
          <path id="path84" style="fill:#e6e6e6" d="m 586.305,393.2 c 0.591,0 1.071,0.46 1.071,1.027 0,0.566 -0.48,1.027 -1.071,1.027 -0.591,0 -1.071,-0.461 -1.071,-1.027 0,-0.567 0.48,-1.027 1.071,-1.027 z m 0,0.628 c 0.229,0 0.415,0.179 0.415,0.399 0,0.22 -0.186,0.398 -0.415,0.398 -0.229,0 -0.415,-0.178 -0.415,-0.398 0,-0.22 0.186,-0.399 0.415,-0.399 z"/>
        </g>
        <g id="g86" transform="translate(16.726,-11.8312)">
          <path id="path88" style="fill:#e6e6e6" d="m 586.305,393.2 c 0.591,0 1.071,0.46 1.071,1.027 0,0.566 -0.48,1.027 -1.071,1.027 -0.591,0 -1.071,-0.461 -1.071,-1.027 0,-0.567 0.48,-1.027 1.071,-1.027 z m 0,0.628 c 0.229,0 0.415,0.179 0.415,0.399 0,0.22 -0.186,0.398 -0.415,0.398 -0.229,0 -0.415,-0.178 -0.415,-0.398 0,-0.22 0.186,-0.399 0.415,-0.399 z"/>
        </g>
        <g id="g90" transform="translate(19.6489,-11.8312)">
          <path id="path92" style="fill:#e6e6e6" d="m 586.305,393.2 c 0.591,0 1.071,0.46 1.071,1.027 0,0.566 -0.48,1.027 -1.071,1.027 -0.591,0 -1.071,-0.461 -1.071,-1.027 0,-0.567 0.48,-1.027 1.071,-1.027 z m 0,0.628 c 0.229,0 0.415,0.179 0.415,0.399 0,0.22 -0.186,0.398 -0.415,0.398 -0.229,0 -0.415,-0.178 -0.415,-0.398 0,-0.22 0.186,-0.399 0.415,-0.399 z"/>
        </g>
        <g id="g94" transform="translate(23.4384,-15.1277)">
          <path id="path96" style="fill:#e6e6e6" d="m 586.305,393.2 c 0.591,0 1.071,0.46 1.071,1.027 0,0.566 -0.48,1.027 -1.071,1.027 -0.591,0 -1.071,-0.461 -1.071,-1.027 0,-0.567 0.48,-1.027 1.071,-1.027 z m 0,0.628 c 0.229,0 0.415,0.179 0.415,0.399 0,0.22 -0.186,0.398 -0.415,0.398 -0.229,0 -0.415,-0.178 -0.415,-0.398 0,-0.22 0.186,-0.399 0.415,-0.399 z"/>
        </g>
        <g id="g98" transform="translate(23.4384,-18.1999)">
          <path id="path100" style="fill:#e6e6e6" d="m 586.305,393.2 c 0.591,0 1.071,0.46 1.071,1.027 0,0.566 -0.48,1.027 -1.071,1.027 -0.591,0 -1.071,-0.461 -1.071,-1.027 0,-0.567 0.48,-1.027 1.071,-1.027 z m 0,0.628 c 0.229,0 0.415,0.179 0.415,0.399 0,0.22 -0.186,0.398 -0.415,0.398 -0.229,0 -0.415,-0.178 -0.415,-0.398 0,-0.22 0.186,-0.399 0.415,-0.399 z"/>
        </g>
        <g id="g102" transform="translate(29.0306,-38.575)">
          <path id="path104" style="fill:#e6e6e6" d="m 586.305,393.2 c 0.591,0 1.071,0.46 1.071,1.027 0,0.566 -0.48,1.027 -1.071,1.027 -0.591,0 -1.071,-0.461 -1.071,-1.027 0,-0.567 0.48,-1.027 1.071,-1.027 z m 0,0.628 c 0.229,0 0.415,0.179 0.415,0.399 0,0.22 -0.186,0.398 -0.415,0.398 -0.229,0 -0.415,-0.178 -0.415,-0.398 0,-0.22 0.186,-0.399 0.415,-0.399 z"/>
        </g>
        <g id="g106" transform="translate(26.4843,-38.575)">
          <path id="path108" style="fill:#e6e6e6" d="m 586.305,393.2 c 0.591,0 1.071,0.46 1.071,1.027 0,0.566 -0.48,1.027 -1.071,1.027 -0.591,0 -1.071,-0.461 -1.071,-1.027 0,-0.567 0.48,-1.027 1.071,-1.027 z m 0,0.628 c 0.229,0 0.415,0.179 0.415,0.399 0,0.22 -0.186,0.398 -0.415,0.398 -0.229,0 -0.415,-0.178 -0.415,-0.398 0,-0.22 0.186,-0.399 0.415,-0.399 z"/>
        </g>
        <g id="g110" transform="translate(20.376,-29.0318)">
          <path id="path112" style="fill:#e6e6e6" d="m 586.305,393.2 c 0.591,0 1.071,0.46 1.071,1.027 0,0.566 -0.48,1.027 -1.071,1.027 -0.591,0 -1.071,-0.461 -1.071,-1.027 0,-0.567 0.48,-1.027 1.071,-1.027 z m 0,0.628 c 0.229,0 0.415,0.179 0.415,0.399 0,0.22 -0.186,0.398 -0.415,0.398 -0.229,0 -0.415,-0.178 -0.415,-0.398 0,-0.22 0.186,-0.399 0.415,-0.399 z"/>
        </g>
        <g id="g114" transform="translate(18.9525,-21.5705)">
          <path id="path116" style="fill:#e6e6e6" d="m 586.305,393.2 c 0.591,0 1.071,0.46 1.071,1.027 0,0.566 -0.48,1.027 -1.071,1.027 -0.591,0 -1.071,-0.461 -1.071,-1.027 0,-0.567 0.48,-1.027 1.071,-1.027 z m 0,0.628 c 0.229,0 0.415,0.179 0.415,0.399 0,0.22 -0.186,0.398 -0.415,0.398 -0.229,0 -0.415,-0.178 -0.415,-0.398 0,-0.22 0.186,-0.399 0.415,-0.399 z"/>
        </g>
        <g id="g118" transform="translate(22.5718,-11.8312)">
          <path id="path120" style="fill:#e6e6e6" d="m 586.305,393.2 c 0.591,0 1.071,0.46 1.071,1.027 0,0.566 -0.48,1.027 -1.071,1.027 -0.591,0 -1.071,-0.461 -1.071,-1.027 0,-0.567 0.48,-1.027 1.071,-1.027 z m 0,0.628 c 0.229,0 0.415,0.179 0.415,0.399 0,0.22 -0.186,0.398 -0.415,0.398 -0.229,0 -0.415,-0.178 -0.415,-0.398 0,-0.22 0.186,-0.399 0.415,-0.399 z"/>
        </g>
        <g id="g122" transform="translate(25.4947,-11.8312)">
          <path id="path124" style="fill:#e6e6e6" d="m 586.305,393.2 c 0.591,0 1.071,0.46 1.071,1.027 0,0.566 -0.48,1.027 -1.071,1.027 -0.591,0 -1.071,-0.461 -1.071,-1.027 0,-0.567 0.48,-1.027 1.071,-1.027 z m 0,0.628 c 0.229,0 0.415,0.179 0.415,0.399 0,0.22 -0.186,0.398 -0.415,0.398 -0.229,0 -0.415,-0.178 -0.415,-0.398 0,-0.22 0.186,-0.399 0.415,-0.399 z"/>
        </g>
        <g id="g126" transform="translate(28.4176,-11.8312)">
          <path id="path128" style="fill:#e6e6e6" d="m 586.305,393.2 c 0.591,0 1.071,0.46 1.071,1.027 0,0.566 -0.48,1.027 -1.071,1.027 -0.591,0 -1.071,-0.461 -1.071,-1.027 0,-0.567 0.48,-1.027 1.071,-1.027 z m 0,0.628 c 0.229,0 0.415,0.179 0.415,0.399 0,0.22 -0.186,0.398 -0.415,0.398 -0.229,0 -0.415,-0.178 -0.415,-0.398 0,-0.22 0.186,-0.399 0.415,-0.399 z"/>
        </g>
        <g id="g130" transform="translate(31.3404,-11.8312)">
          <path id="path132" style="fill:#e6e6e6" d="m 586.305,393.2 c 0.591,0 1.071,0.46 1.071,1.027 0,0.566 -0.48,1.027 -1.071,1.027 -0.591,0 -1.071,-0.461 -1.071,-1.027 0,-0.567 0.48,-1.027 1.071,-1.027 z m 0,0.628 c 0.229,0 0.415,0.179 0.415,0.399 0,0.22 -0.186,0.398 -0.415,0.398 -0.229,0 -0.415,-0.178 -0.415,-0.398 0,-0.22 0.186,-0.399 0.415,-0.399 z"/>
        </g>
        <g id="g134" transform="translate(34.2633,-11.8312)">
          <path id="path136" style="fill:#e6e6e6" d="m 586.305,393.2 c 0.591,0 1.071,0.46 1.071,1.027 0,0.566 -0.48,1.027 -1.071,1.027 -0.591,0 -1.071,-0.461 -1.071,-1.027 0,-0.567 0.48,-1.027 1.071,-1.027 z m 0,0.628 c 0.229,0 0.415,0.179 0.415,0.399 0,0.22 -0.186,0.398 -0.415,0.398 -0.229,0 -0.415,-0.178 -0.415,-0.398 0,-0.22 0.186,-0.399 0.415,-0.399 z"/>
        </g>
        <g id="g138" transform="translate(37.1862,-11.8312)">
          <path id="path140" style="fill:#e6e6e6" d="m 586.305,393.2 c 0.591,0 1.071,0.46 1.071,1.027 0,0.566 -0.48,1.027 -1.071,1.027 -0.591,0 -1.071,-0.461 -1.071,-1.027 0,-0.567 0.48,-1.027 1.071,-1.027 z m 0,0.628 c 0.229,0 0.415,0.179 0.415,0.399 0,0.22 -0.186,0.398 -0.415,0.398 -0.229,0 -0.415,-0.178 -0.415,-0.398 0,-0.22 0.186,-0.399 0.415,-0.399 z"/>
        </g>
        <g id="g142" transform="translate(40.1091,-11.8312)">
          <path id="path144" style="fill:#e6e6e6" d="m 586.305,393.2 c 0.591,0 1.071,0.46 1.071,1.027 0,0.566 -0.48,1.027 -1.071,1.027 -0.591,0 -1.071,-0.461 -1.071,-1.027 0,-0.567 0.48,-1.027 1.071,-1.027 z m 0,0.628 c 0.229,0 0.415,0.179 0.415,0.399 0,0.22 -0.186,0.398 -0.415,0.398 -0.229,0 -0.415,-0.178 -0.415,-0.398 0,-0.22 0.186,-0.399 0.415,-0.399 z"/>
        </g>
        <g id="g146" transform="translate(37.1324,-14.8078)">
          <path id="path148" style="fill:#e6e6e6" d="m 586.305,393.2 c 0.591,0 1.071,0.46 1.071,1.027 0,0.566 -0.48,1.027 -1.071,1.027 -0.591,0 -1.071,-0.461 -1.071,-1.027 0,-0.567 0.48,-1.027 1.071,-1.027 z m 0,0.628 c 0.229,0 0.415,0.179 0.415,0.399 0,0.22 -0.186,0.398 -0.415,0.398 -0.229,0 -0.415,-0.178 -0.415,-0.398 0,-0.22 0.186,-0.399 0.415,-0.399 z"/>
        </g>
        <g id="g150" transform="translate(32.8595,-18.579)">
          <path id="path152" style="fill:#e6e6e6" d="m 586.305,393.2 c 0.591,0 1.071,0.46 1.071,1.027 0,0.566 -0.48,1.027 -1.071,1.027 -0.591,0 -1.071,-0.461 -1.071,-1.027 0,-0.567 0.48,-1.027 1.071,-1.027 z m 0,0.628 c 0.229,0 0.415,0.179 0.415,0.399 0,0.22 -0.186,0.398 -0.415,0.398 -0.229,0 -0.415,-0.178 -0.415,-0.398 0,-0.22 0.186,-0.399 0.415,-0.399 z"/>
        </g>
        <g id="g154" transform="translate(34.2633,-14.8078)">
          <path id="path156" style="fill:#e6e6e6" d="m 586.305,393.2 c 0.591,0 1.071,0.46 1.071,1.027 0,0.566 -0.48,1.027 -1.071,1.027 -0.591,0 -1.071,-0.461 -1.071,-1.027 0,-0.567 0.48,-1.027 1.071,-1.027 z m 0,0.628 c 0.229,0 0.415,0.179 0.415,0.399 0,0.22 -0.186,0.398 -0.415,0.398 -0.229,0 -0.415,-0.178 -0.415,-0.398 0,-0.22 0.186,-0.399 0.415,-0.399 z"/>
        </g>
        <g id="g158" transform="translate(32.8595,-24.5051)">
          <path id="path160" style="fill:#e6e6e6" d="m 586.305,393.2 c 0.591,0 1.071,0.46 1.071,1.027 0,0.566 -0.48,1.027 -1.071,1.027 -0.591,0 -1.071,-0.461 -1.071,-1.027 0,-0.567 0.48,-1.027 1.071,-1.027 z m 0,0.628 c 0.229,0 0.415,0.179 0.415,0.399 0,0.22 -0.186,0.398 -0.415,0.398 -0.229,0 -0.415,-0.178 -0.415,-0.398 0,-0.22 0.186,-0.399 0.415,-0.399 z"/>
        </g>
        <g id="g162" transform="translate(29.7037,-24.5051)">
          <path id="path164" style="fill:#e6e6e6" d="m 586.305,393.2 c 0.591,0 1.071,0.46 1.071,1.027 0,0.566 -0.48,1.027 -1.071,1.027 -0.591,0 -1.071,-0.461 -1.071,-1.027 0,-0.567 0.48,-1.027 1.071,-1.027 z m 0,0.628 c 0.229,0 0.415,0.179 0.415,0.399 0,0.22 -0.186,0.398 -0.415,0.398 -0.229,0 -0.415,-0.178 -0.415,-0.398 0,-0.22 0.186,-0.399 0.415,-0.399 z"/>
        </g>
        <g id="g166" transform="translate(40.1091,-14.8078)">
          <path id="path168" style="fill:#e6e6e6" d="m 586.305,393.2 c 0.591,0 1.071,0.46 1.071,1.027 0,0.566 -0.48,1.027 -1.071,1.027 -0.591,0 -1.071,-0.461 -1.071,-1.027 0,-0.567 0.48,-1.027 1.071,-1.027 z m 0,0.628 c 0.229,0 0.415,0.179 0.415,0.399 0,0.22 -0.186,0.398 -0.415,0.398 -0.229,0 -0.415,-0.178 -0.415,-0.398 0,-0.22 0.186,-0.399 0.415,-0.399 z"/>
        </g>
        <g id="g170" transform="translate(39.0803,-18.1999)">
          <path id="path172" style="fill:#e6e6e6" d="m 586.305,393.2 c 0.591,0 1.071,0.46 1.071,1.027 0,0.566 -0.48,1.027 -1.071,1.027 -0.591,0 -1.071,-0.461 -1.071,-1.027 0,-0.567 0.48,-1.027 1.071,-1.027 z m 0,0.628 c 0.229,0 0.415,0.179 0.415,0.399 0,0.22 -0.186,0.398 -0.415,0.398 -0.229,0 -0.415,-0.178 -0.415,-0.398 0,-0.22 0.186,-0.399 0.415,-0.399 z"/>
        </g>
        <g id="g174" transform="translate(41.8199,-18.1999)">
          <path id="path176" style="fill:#e6e6e6" d="m 586.305,393.2 c 0.591,0 1.071,0.46 1.071,1.027 0,0.566 -0.48,1.027 -1.071,1.027 -0.591,0 -1.071,-0.461 -1.071,-1.027 0,-0.567 0.48,-1.027 1.071,-1.027 z m 0,0.628 c 0.229,0 0.415,0.179 0.415,0.399 0,0.22 -0.186,0.398 -0.415,0.398 -0.229,0 -0.415,-0.178 -0.415,-0.398 0,-0.22 0.186,-0.399 0.415,-0.399 z"/>
        </g>
        <g id="g178" transform="translate(41.8199,-21.5705)">
          <path id="path180" style="fill:#e6e6e6" d="m 586.305,393.2 c 0.591,0 1.071,0.46 1.071,1.027 0,0.566 -0.48,1.027 -1.071,1.027 -0.591,0 -1.071,-0.461 -1.071,-1.027 0,-0.567 0.48,-1.027 1.071,-1.027 z m 0,0.628 c 0.229,0 0.415,0.179 0.415,0.399 0,0.22 -0.186,0.398 -0.415,0.398 -0.229,0 -0.415,-0.178 -0.415,-0.398 0,-0.22 0.186,-0.399 0.415,-0.399 z"/>
        </g>
        <g id="g182" transform="translate(42.8906,-30.9455)">
          <path id="path184" style="fill:#e6e6e6" d="m 586.305,393.2 c 0.591,0 1.071,0.46 1.071,1.027 0,0.566 -0.48,1.027 -1.071,1.027 -0.591,0 -1.071,-0.461 -1.071,-1.027 0,-0.567 0.48,-1.027 1.071,-1.027 z m 0,0.628 c 0.229,0 0.415,0.179 0.415,0.399 0,0.22 -0.186,0.398 -0.415,0.398 -0.229,0 -0.415,-0.178 -0.415,-0.398 0,-0.22 0.186,-0.399 0.415,-0.399 z"/>
        </g>
        <g id="g186" transform="translate(43.032,-11.8312)">
          <path id="path188" style="fill:#e6e6e6" d="m 586.305,393.2 c 0.591,0 1.071,0.46 1.071,1.027 0,0.566 -0.48,1.027 -1.071,1.027 -0.591,0 -1.071,-0.461 -1.071,-1.027 0,-0.567 0.48,-1.027 1.071,-1.027 z m 0,0.628 c 0.229,0 0.415,0.179 0.415,0.399 0,0.22 -0.186,0.398 -0.415,0.398 -0.229,0 -0.415,-0.178 -0.415,-0.398 0,-0.22 0.186,-0.399 0.415,-0.399 z"/>
        </g>
        <g id="g190" transform="translate(45.9549,-11.8312)">
          <path id="path192" style="fill:#e6e6e6" d="m 586.305,393.2 c 0.591,0 1.071,0.46 1.071,1.027 0,0.566 -0.48,1.027 -1.071,1.027 -0.591,0 -1.071,-0.461 -1.071,-1.027 0,-0.567 0.48,-1.027 1.071,-1.027 z m 0,0.628 c 0.229,0 0.415,0.179 0.415,0.399 0,0.22 -0.186,0.398 -0.415,0.398 -0.229,0 -0.415,-0.178 -0.415,-0.398 0,-0.22 0.186,-0.399 0.415,-0.399 z"/>
        </g>
        <g id="g194" transform="translate(44.1637,-16.8616)">
          <path id="path196" style="fill:#e6e6e6" d="m 586.305,393.2 c 0.591,0 1.071,0.46 1.071,1.027 0,0.566 -0.48,1.027 -1.071,1.027 -0.591,0 -1.071,-0.461 -1.071,-1.027 0,-0.567 0.48,-1.027 1.071,-1.027 z m 0,0.628 c 0.229,0 0.415,0.179 0.415,0.399 0,0.22 -0.186,0.398 -0.415,0.398 -0.229,0 -0.415,-0.178 -0.415,-0.398 0,-0.22 0.186,-0.399 0.415,-0.399 z"/>
        </g>
        <g id="g198" transform="translate(47.7806,-16.8616)">
          <path id="path200" style="fill:#e6e6e6" d="m 586.305,393.2 c 0.591,0 1.071,0.46 1.071,1.027 0,0.566 -0.48,1.027 -1.071,1.027 -0.591,0 -1.071,-0.461 -1.071,-1.027 0,-0.567 0.48,-1.027 1.071,-1.027 z m 0,0.628 c 0.229,0 0.415,0.179 0.415,0.399 0,0.22 -0.186,0.398 -0.415,0.398 -0.229,0 -0.415,-0.178 -0.415,-0.398 0,-0.22 0.186,-0.399 0.415,-0.399 z"/>
        </g>
        <g id="g202" transform="translate(48.1773,-21.4255)">
          <path id="path204" style="fill:#e6e6e6" d="m 586.305,393.2 c 0.591,0 1.071,0.46 1.071,1.027 0,0.566 -0.48,1.027 -1.071,1.027 -0.591,0 -1.071,-0.461 -1.071,-1.027 0,-0.567 0.48,-1.027 1.071,-1.027 z m 0,0.628 c 0.229,0 0.415,0.179 0.415,0.399 0,0.22 -0.186,0.398 -0.415,0.398 -0.229,0 -0.415,-0.178 -0.415,-0.398 0,-0.22 0.186,-0.399 0.415,-0.399 z"/>
        </g>
        <g id="g206" transform="translate(48.8778,-11.8312)">
          <path id="path208" style="fill:#e6e6e6" d="m 586.305,393.2 c 0.591,0 1.071,0.46 1.071,1.027 0,0.566 -0.48,1.027 -1.071,1.027 -0.591,0 -1.071,-0.461 -1.071,-1.027 0,-0.567 0.48,-1.027 1.071,-1.027 z m 0,0.628 c 0.229,0 0.415,0.179 0.415,0.399 0,0.22 -0.186,0.398 -0.415,0.398 -0.229,0 -0.415,-0.178 -0.415,-0.398 0,-0.22 0.186,-0.399 0.415,-0.399 z"/>
        </g>
        <g id="g210" transform="translate(51.8007,-11.8312)">
          <path id="path212" style="fill:#e6e6e6" d="m 586.305,393.2 c 0.591,0 1.071,0.46 1.071,1.027 0,0.566 -0.48,1.027 -1.071,1.027 -0.591,0 -1.071,-0.461 -1.071,-1.027 0,-0.567 0.48,-1.027 1.071,-1.027 z m 0,0.628 c 0.229,0 0.415,0.179 0.415,0.399 0,0.22 -0.186,0.398 -0.415,0.398 -0.229,0 -0.415,-0.178 -0.415,-0.398 0,-0.22 0.186,-0.399 0.415,-0.399 z"/>
        </g>
        <g id="g214" transform="translate(53.9419,-15.1187)">
          <path id="path216" style="fill:#e6e6e6" d="m 586.305,393.2 c 0.591,0 1.071,0.46 1.071,1.027 0,0.566 -0.48,1.027 -1.071,1.027 -0.591,0 -1.071,-0.461 -1.071,-1.027 0,-0.567 0.48,-1.027 1.071,-1.027 z m 0,0.628 c 0.229,0 0.415,0.179 0.415,0.399 0,0.22 -0.186,0.398 -0.415,0.398 -0.229,0 -0.415,-0.178 -0.415,-0.398 0,-0.22 0.186,-0.399 0.415,-0.399 z"/>
        </g>
        <g id="g218" transform="translate(51.1949,-16.883)">
          <path id="path220" style="fill:#e6e6e6" d="m 586.305,393.2 c 0.591,0 1.071,0.46 1.071,1.027 0,0.566 -0.48,1.027 -1.071,1.027 -0.591,0 -1.071,-0.461 -1.071,-1.027 0,-0.567 0.48,-1.027 1.071,-1.027 z m 0,0.628 c 0.229,0 0.415,0.179 0.415,0.399 0,0.22 -0.186,0.398 -0.415,0.398 -0.229,0 -0.415,-0.178 -0.415,-0.398 0,-0.22 0.186,-0.399 0.415,-0.399 z"/>
        </g>
        <g id="g222" transform="translate(5.39055,32.79)">
          <path id="path224" style="fill:#e6e6e6" d="m 586.305,393.2 c 0.591,0 1.071,0.46 1.071,1.027 0,0.566 -0.48,1.027 -1.071,1.027 -0.591,0 -1.071,-0.461 -1.071,-1.027 0,-0.567 0.48,-1.027 1.071,-1.027 z m 0,0.628 c 0.229,0 0.415,0.179 0.415,0.399 0,0.22 -0.186,0.398 -0.415,0.398 -0.229,0 -0.415,-0.178 -0.415,-0.398 0,-0.22 0.186,-0.399 0.415,-0.399 z"/>
        </g>
        <g id="g226" transform="translate(-1.00838,-15.5661)">
          <path id="path228" style="fill:#e6e6e6" d="m 586.305,393.2 c 0.591,0 1.071,0.46 1.071,1.027 0,0.566 -0.48,1.027 -1.071,1.027 -0.591,0 -1.071,-0.461 -1.071,-1.027 0,-0.567 0.48,-1.027 1.071,-1.027 z m 0,0.628 c 0.229,0 0.415,0.179 0.415,0.399 0,0.22 -0.186,0.398 -0.415,0.398 -0.229,0 -0.415,-0.178 -0.415,-0.398 0,-0.22 0.186,-0.399 0.415,-0.399 z"/>
        </g>
        <g id="g230" transform="translate(-1.14427,-9.45488)">
          <path id="path232" style="fill:#e6e6e6" d="m 586.305,393.2 c 0.591,0 1.071,0.46 1.071,1.027 0,0.566 -0.48,1.027 -1.071,1.027 -0.591,0 -1.071,-0.461 -1.071,-1.027 0,-0.567 0.48,-1.027 1.071,-1.027 z m 0,0.628 c 0.229,0 0.415,0.179 0.415,0.399 0,0.22 -0.186,0.398 -0.415,0.398 -0.229,0 -0.415,-0.178 -0.415,-0.398 0,-0.22 0.186,-0.399 0.415,-0.399 z"/>
        </g>
        <g id="g234" transform="translate(1.97619,-15.5661)">
          <path id="path236" style="fill:#e6e6e6" d="m 586.305,393.2 c 0.591,0 1.071,0.46 1.071,1.027 0,0.566 -0.48,1.027 -1.071,1.027 -0.591,0 -1.071,-0.461 -1.071,-1.027 0,-0.567 0.48,-1.027 1.071,-1.027 z m 0,0.628 c 0.229,0 0.415,0.179 0.415,0.399 0,0.22 -0.186,0.398 -0.415,0.398 -0.229,0 -0.415,-0.178 -0.415,-0.398 0,-0.22 0.186,-0.399 0.415,-0.399 z"/>
        </g>
        <g id="g238" transform="translate(1.97619,-18.5827)">
          <path id="path240" style="fill:#e6e6e6" d="m 586.305,393.2 c 0.591,0 1.071,0.46 1.071,1.027 0,0.566 -0.48,1.027 -1.071,1.027 -0.591,0 -1.071,-0.461 -1.071,-1.027 0,-0.567 0.48,-1.027 1.071,-1.027 z m 0,0.628 c 0.229,0 0.415,0.179 0.415,0.399 0,0.22 -0.186,0.398 -0.415,0.398 -0.229,0 -0.415,-0.178 -0.415,-0.398 0,-0.22 0.186,-0.399 0.415,-0.399 z"/>
        </g>
        <g id="g242" transform="translate(1.97619,-21.5705)">
          <path id="path244" style="fill:#e6e6e6" d="m 586.305,393.2 c 0.591,0 1.071,0.46 1.071,1.027 0,0.566 -0.48,1.027 -1.071,1.027 -0.591,0 -1.071,-0.461 -1.071,-1.027 0,-0.567 0.48,-1.027 1.071,-1.027 z m 0,0.628 c 0.229,0 0.415,0.179 0.415,0.399 0,0.22 -0.186,0.398 -0.415,0.398 -0.229,0 -0.415,-0.178 -0.415,-0.398 0,-0.22 0.186,-0.399 0.415,-0.399 z"/>
        </g>
        <g id="g246" transform="translate(-1.00838,-18.5395)">
          <path id="path248" style="fill:#e6e6e6" d="m 586.305,393.2 c 0.591,0 1.071,0.46 1.071,1.027 0,0.566 -0.48,1.027 -1.071,1.027 -0.591,0 -1.071,-0.461 -1.071,-1.027 0,-0.567 0.48,-1.027 1.071,-1.027 z m 0,0.628 c 0.229,0 0.415,0.179 0.415,0.399 0,0.22 -0.186,0.398 -0.415,0.398 -0.229,0 -0.415,-0.178 -0.415,-0.398 0,-0.22 0.186,-0.399 0.415,-0.399 z"/>
        </g>
        <g id="g250" transform="translate(-1.00838,-21.5705)">
          <path id="path252" style="fill:#e6e6e6" d="m 586.305,393.2 c 0.591,0 1.071,0.46 1.071,1.027 0,0.566 -0.48,1.027 -1.071,1.027 -0.591,0 -1.071,-0.461 -1.071,-1.027 0,-0.567 0.48,-1.027 1.071,-1.027 z m 0,0.628 c 0.229,0 0.415,0.179 0.415,0.399 0,0.22 -0.186,0.398 -0.415,0.398 -0.229,0 -0.415,-0.178 -0.415,-0.398 0,-0.22 0.186,-0.399 0.415,-0.399 z"/>
        </g>
        <g id="g254" transform="translate(8.59262,-31.9724)">
          <path id="path256" style="fill:#e6e6e6" d="m 586.305,393.2 c 0.591,0 1.071,0.46 1.071,1.027 0,0.566 -0.48,1.027 -1.071,1.027 -0.591,0 -1.071,-0.461 -1.071,-1.027 0,-0.567 0.48,-1.027 1.071,-1.027 z m 0,0.628 c 0.229,0 0.415,0.179 0.415,0.399 0,0.22 -0.186,0.398 -0.415,0.398 -0.229,0 -0.415,-0.178 -0.415,-0.398 0,-0.22 0.186,-0.399 0.415,-0.399 z"/>
        </g>
        <g id="g258" transform="translate(9.66323,-34.6061)">
          <path id="path260" style="fill:#e6e6e6" d="m 586.305,393.2 c 0.591,0 1.071,0.46 1.071,1.027 0,0.566 -0.48,1.027 -1.071,1.027 -0.591,0 -1.071,-0.461 -1.071,-1.027 0,-0.567 0.48,-1.027 1.071,-1.027 z m 0,0.628 c 0.229,0 0.415,0.179 0.415,0.399 0,0.22 -0.186,0.398 -0.415,0.398 -0.229,0 -0.415,-0.178 -0.415,-0.398 0,-0.22 0.186,-0.399 0.415,-0.399 z"/>
        </g>
        <g id="g262" transform="translate(10.7338,-36.9499)">
          <path id="path264" style="fill:#e6e6e6" d="m 586.305,393.2 c 0.591,0 1.071,0.46 1.071,1.027 0,0.566 -0.48,1.027 -1.071,1.027 -0.591,0 -1.071,-0.461 -1.071,-1.027 0,-0.567 0.48,-1.027 1.071,-1.027 z m 0,0.628 c 0.229,0 0.415,0.179 0.415,0.399 0,0.22 -0.186,0.398 -0.415,0.398 -0.229,0 -0.415,-0.178 -0.415,-0.398 0,-0.22 0.186,-0.399 0.415,-0.399 z"/>
        </g>
        <g id="g266" transform="translate(6.01036,-39.6079)">
          <path id="path268" style="fill:#e6e6e6" d="m 586.305,393.2 c 0.591,0 1.071,0.46 1.071,1.027 0,0.566 -0.48,1.027 -1.071,1.027 -0.591,0 -1.071,-0.461 -1.071,-1.027 0,-0.567 0.48,-1.027 1.071,-1.027 z m 0,0.628 c 0.229,0 0.415,0.179 0.415,0.399 0,0.22 -0.186,0.398 -0.415,0.398 -0.229,0 -0.415,-0.178 -0.415,-0.398 0,-0.22 0.186,-0.399 0.415,-0.399 z"/>
        </g>
        <g id="g270" transform="translate(4.11741,-31.9724)">
          <path id="path272" style="fill:#e6e6e6" d="m 586.305,393.2 c 0.591,0 1.071,0.46 1.071,1.027 0,0.566 -0.48,1.027 -1.071,1.027 -0.591,0 -1.071,-0.461 -1.071,-1.027 0,-0.567 0.48,-1.027 1.071,-1.027 z m 0,0.628 c 0.229,0 0.415,0.179 0.415,0.399 0,0.22 -0.186,0.398 -0.415,0.398 -0.229,0 -0.415,-0.178 -0.415,-0.398 0,-0.22 0.186,-0.399 0.415,-0.399 z"/>
        </g>
        <g id="g274" transform="translate(4.11741,-35.1902)">
          <path id="path276" style="fill:#e6e6e6" d="m 586.305,393.2 c 0.591,0 1.071,0.46 1.071,1.027 0,0.566 -0.48,1.027 -1.071,1.027 -0.591,0 -1.071,-0.461 -1.071,-1.027 0,-0.567 0.48,-1.027 1.071,-1.027 z m 0,0.628 c 0.229,0 0.415,0.179 0.415,0.399 0,0.22 -0.186,0.398 -0.415,0.398 -0.229,0 -0.415,-0.178 -0.415,-0.398 0,-0.22 0.186,-0.399 0.415,-0.399 z"/>
        </g>
        <g id="g278" transform="translate(1.4983,-43.27)">
          <path id="path280" style="fill:#e6e6e6" d="m 586.305,393.2 c 0.591,0 1.071,0.46 1.071,1.027 0,0.566 -0.48,1.027 -1.071,1.027 -0.591,0 -1.071,-0.461 -1.071,-1.027 0,-0.567 0.48,-1.027 1.071,-1.027 z m 0,0.628 c 0.229,0 0.415,0.179 0.415,0.399 0,0.22 -0.186,0.398 -0.415,0.398 -0.229,0 -0.415,-0.178 -0.415,-0.398 0,-0.22 0.186,-0.399 0.415,-0.399 z"/>
        </g>
        <g id="g282" transform="translate(8.15813,-28.7436)">
          <path id="path284" style="fill:#e6e6e6" d="m 586.305,393.2 c 0.591,0 1.071,0.46 1.071,1.027 0,0.566 -0.48,1.027 -1.071,1.027 -0.591,0 -1.071,-0.461 -1.071,-1.027 0,-0.567 0.48,-1.027 1.071,-1.027 z m 0,0.628 c 0.229,0 0.415,0.179 0.415,0.399 0,0.22 -0.186,0.398 -0.415,0.398 -0.229,0 -0.415,-0.178 -0.415,-0.398 0,-0.22 0.186,-0.399 0.415,-0.399 z"/>
        </g>
        <g id="g286" transform="translate(5.10201,-24.5702)">
          <path id="path288" style="fill:#e6e6e6" d="m 586.305,393.2 c 0.591,0 1.071,0.46 1.071,1.027 0,0.566 -0.48,1.027 -1.071,1.027 -0.591,0 -1.071,-0.461 -1.071,-1.027 0,-0.567 0.48,-1.027 1.071,-1.027 z m 0,0.628 c 0.229,0 0.415,0.179 0.415,0.399 0,0.22 -0.186,0.398 -0.415,0.398 -0.229,0 -0.415,-0.178 -0.415,-0.398 0,-0.22 0.186,-0.399 0.415,-0.399 z"/>
        </g>
        <g id="g290" transform="translate(-1.14001,12.0825)">
          <path id="path292" style="fill:#e6e6e6" d="m 586.305,393.2 c 0.591,0 1.071,0.46 1.071,1.027 0,0.566 -0.48,1.027 -1.071,1.027 -0.591,0 -1.071,-0.461 -1.071,-1.027 0,-0.567 0.48,-1.027 1.071,-1.027 z m 0,0.628 c 0.229,0 0.415,0.179 0.415,0.399 0,0.22 -0.186,0.398 -0.415,0.398 -0.229,0 -0.415,-0.178 -0.415,-0.398 0,-0.22 0.186,-0.399 0.415,-0.399 z"/>
        </g>
        <g id="g294" transform="translate(-1.14001,16.5426)">
          <path id="path296" style="fill:#e6e6e6" d="m 586.305,393.2 c 0.591,0 1.071,0.46 1.071,1.027 0,0.566 -0.48,1.027 -1.071,1.027 -0.591,0 -1.071,-0.461 -1.071,-1.027 0,-0.567 0.48,-1.027 1.071,-1.027 z m 0,0.628 c 0.229,0 0.415,0.179 0.415,0.399 0,0.22 -0.186,0.398 -0.415,0.398 -0.229,0 -0.415,-0.178 -0.415,-0.398 0,-0.22 0.186,-0.399 0.415,-0.399 z"/>
        </g>
        <g id="g298" transform="translate(0.429402,9.65473)">
          <path id="path300" style="fill:#e6e6e6" d="m 586.305,393.2 c 0.591,0 1.071,0.46 1.071,1.027 0,0.566 -0.48,1.027 -1.071,1.027 -0.591,0 -1.071,-0.461 -1.071,-1.027 0,-0.567 0.48,-1.027 1.071,-1.027 z m 0,0.628 c 0.229,0 0.415,0.179 0.415,0.399 0,0.22 -0.186,0.398 -0.415,0.398 -0.229,0 -0.415,-0.178 -0.415,-0.398 0,-0.22 0.186,-0.399 0.415,-0.399 z"/>
        </g>
        <g id="g302" transform="translate(-7.59051,-35.2639)">
          <path id="path304" style="fill:#e6e6e6" d="m 586.305,393.2 c 0.591,0 1.071,0.46 1.071,1.027 0,0.566 -0.48,1.027 -1.071,1.027 -0.591,0 -1.071,-0.461 -1.071,-1.027 0,-0.567 0.48,-1.027 1.071,-1.027 z m 0,0.628 c 0.229,0 0.415,0.179 0.415,0.399 0,0.22 -0.186,0.398 -0.415,0.398 -0.229,0 -0.415,-0.178 -0.415,-0.398 0,-0.22 0.186,-0.399 0.415,-0.399 z"/>
        </g>
        <g id="g306" transform="translate(-6.71567,-32.825)">
          <path id="path308" style="fill:#e6e6e6" d="m 586.305,393.2 c 0.591,0 1.071,0.46 1.071,1.027 0,0.566 -0.48,1.027 -1.071,1.027 -0.591,0 -1.071,-0.461 -1.071,-1.027 0,-0.567 0.48,-1.027 1.071,-1.027 z m 0,0.628 c 0.229,0 0.415,0.179 0.415,0.399 0,0.22 -0.186,0.398 -0.415,0.398 -0.229,0 -0.415,-0.178 -0.415,-0.398 0,-0.22 0.186,-0.399 0.415,-0.399 z"/>
        </g>
        <g id="g310" transform="translate(-2.71131,-30.8005)">
          <path id="path312" style="fill:#e6e6e6" d="m 586.305,393.2 c 0.591,0 1.071,0.46 1.071,1.027 0,0.566 -0.48,1.027 -1.071,1.027 -0.591,0 -1.071,-0.461 -1.071,-1.027 0,-0.567 0.48,-1.027 1.071,-1.027 z m 0,0.628 c 0.229,0 0.415,0.179 0.415,0.399 0,0.22 -0.186,0.398 -0.415,0.398 -0.229,0 -0.415,-0.178 -0.415,-0.398 0,-0.22 0.186,-0.399 0.415,-0.399 z"/>
        </g>
        <g id="g314" transform="translate(-4.9538,-30.8005)">
          <path id="path316" style="fill:#e6e6e6" d="m 586.305,393.2 c 0.591,0 1.071,0.46 1.071,1.027 0,0.566 -0.48,1.027 -1.071,1.027 -0.591,0 -1.071,-0.461 -1.071,-1.027 0,-0.567 0.48,-1.027 1.071,-1.027 z m 0,0.628 c 0.229,0 0.415,0.179 0.415,0.399 0,0.22 -0.186,0.398 -0.415,0.398 -0.229,0 -0.415,-0.178 -0.415,-0.398 0,-0.22 0.186,-0.399 0.415,-0.399 z"/>
        </g>
        <g id="g318" transform="translate(-4.3237,2.89389)">
          <path id="path320" style="fill:#e6e6e6" d="m 586.305,393.2 c 0.591,0 1.071,0.46 1.071,1.027 0,0.566 -0.48,1.027 -1.071,1.027 -0.591,0 -1.071,-0.461 -1.071,-1.027 0,-0.567 0.48,-1.027 1.071,-1.027 z m 0,0.628 c 0.229,0 0.415,0.179 0.415,0.399 0,0.22 -0.186,0.398 -0.415,0.398 -0.229,0 -0.415,-0.178 -0.415,-0.398 0,-0.22 0.186,-0.399 0.415,-0.399 z"/>
        </g>
        <g id="g322" transform="translate(-7.29755,6.19615)">
          <path id="path324" style="fill:#e6e6e6" d="m 586.305,393.2 c 0.591,0 1.071,0.46 1.071,1.027 0,0.566 -0.48,1.027 -1.071,1.027 -0.591,0 -1.071,-0.461 -1.071,-1.027 0,-0.567 0.48,-1.027 1.071,-1.027 z m 0,0.628 c 0.229,0 0.415,0.179 0.415,0.399 0,0.22 -0.186,0.398 -0.415,0.398 -0.229,0 -0.415,-0.178 -0.415,-0.398 0,-0.22 0.186,-0.399 0.415,-0.399 z"/>
        </g>
        <g id="g326" transform="translate(-10.2274,6.19615)">
          <path id="path328" style="fill:#e6e6e6" d="m 586.305,393.2 c 0.591,0 1.071,0.46 1.071,1.027 0,0.566 -0.48,1.027 -1.071,1.027 -0.591,0 -1.071,-0.461 -1.071,-1.027 0,-0.567 0.48,-1.027 1.071,-1.027 z m 0,0.628 c 0.229,0 0.415,0.179 0.415,0.399 0,0.22 -0.186,0.398 -0.415,0.398 -0.229,0 -0.415,-0.178 -0.415,-0.398 0,-0.22 0.186,-0.399 0.415,-0.399 z"/>
        </g>
        <g id="g330" transform="translate(-3.98445,6.19615)">
          <path id="path332" style="fill:#e6e6e6" d="m 586.305,393.2 c 0.591,0 1.071,0.46 1.071,1.027 0,0.566 -0.48,1.027 -1.071,1.027 -0.591,0 -1.071,-0.461 -1.071,-1.027 0,-0.567 0.48,-1.027 1.071,-1.027 z m 0,0.628 c 0.229,0 0.415,0.179 0.415,0.399 0,0.22 -0.186,0.398 -0.415,0.398 -0.229,0 -0.415,-0.178 -0.415,-0.398 0,-0.22 0.186,-0.399 0.415,-0.399 z"/>
        </g>
        <g id="g334" transform="translate(-5.3051,9.62919)">
          <path id="path336" style="fill:#e6e6e6" d="m 586.305,393.2 c 0.591,0 1.071,0.46 1.071,1.027 0,0.566 -0.48,1.027 -1.071,1.027 -0.591,0 -1.071,-0.461 -1.071,-1.027 0,-0.567 0.48,-1.027 1.071,-1.027 z m 0,0.628 c 0.229,0 0.415,0.179 0.415,0.399 0,0.22 -0.186,0.398 -0.415,0.398 -0.229,0 -0.415,-0.178 -0.415,-0.398 0,-0.22 0.186,-0.399 0.415,-0.399 z"/>
        </g>
        <g id="g338" transform="translate(-7.39881,2.89389)">
          <path id="path340" style="fill:#e6e6e6" d="m 586.305,393.2 c 0.591,0 1.071,0.46 1.071,1.027 0,0.566 -0.48,1.027 -1.071,1.027 -0.591,0 -1.071,-0.461 -1.071,-1.027 0,-0.567 0.48,-1.027 1.071,-1.027 z m 0,0.628 c 0.229,0 0.415,0.179 0.415,0.399 0,0.22 -0.186,0.398 -0.415,0.398 -0.229,0 -0.415,-0.178 -0.415,-0.398 0,-0.22 0.186,-0.399 0.415,-0.399 z"/>
        </g>
        <g id="g342" transform="translate(-10.2272,2.89389)">
          <path id="path344" style="fill:#e6e6e6" d="m 586.305,393.2 c 0.591,0 1.071,0.46 1.071,1.027 0,0.566 -0.48,1.027 -1.071,1.027 -0.591,0 -1.071,-0.461 -1.071,-1.027 0,-0.567 0.48,-1.027 1.071,-1.027 z m 0,0.628 c 0.229,0 0.415,0.179 0.415,0.399 0,0.22 -0.186,0.398 -0.415,0.398 -0.229,0 -0.415,-0.178 -0.415,-0.398 0,-0.22 0.186,-0.399 0.415,-0.399 z"/>
        </g>
        <g id="g346" transform="translate(-10.2272,-0.162317)">
          <path id="path348" style="fill:#e6e6e6" d="m 586.305,393.2 c 0.591,0 1.071,0.46 1.071,1.027 0,0.566 -0.48,1.027 -1.071,1.027 -0.591,0 -1.071,-0.461 -1.071,-1.027 0,-0.567 0.48,-1.027 1.071,-1.027 z m 0,0.628 c 0.229,0 0.415,0.179 0.415,0.399 0,0.22 -0.186,0.398 -0.415,0.398 -0.229,0 -0.415,-0.178 -0.415,-0.398 0,-0.22 0.186,-0.399 0.415,-0.399 z"/>
        </g>
        <g id="g350" transform="translate(-7.29755,-3.11642)">
          <path id="path352" style="fill:#e6e6e6" d="m 586.305,393.2 c 0.591,0 1.071,0.46 1.071,1.027 0,0.566 -0.48,1.027 -1.071,1.027 -0.591,0 -1.071,-0.461 -1.071,-1.027 0,-0.567 0.48,-1.027 1.071,-1.027 z m 0,0.628 c 0.229,0 0.415,0.179 0.415,0.399 0,0.22 -0.186,0.398 -0.415,0.398 -0.229,0 -0.415,-0.178 -0.415,-0.398 0,-0.22 0.186,-0.399 0.415,-0.399 z"/>
        </g>
        <g id="g354" transform="translate(-10.4224,-3.11642)">
          <path id="path356" style="fill:#e6e6e6" d="m 586.305,393.2 c 0.591,0 1.071,0.46 1.071,1.027 0,0.566 -0.48,1.027 -1.071,1.027 -0.591,0 -1.071,-0.461 -1.071,-1.027 0,-0.567 0.48,-1.027 1.071,-1.027 z m 0,0.628 c 0.229,0 0.415,0.179 0.415,0.399 0,0.22 -0.186,0.398 -0.415,0.398 -0.229,0 -0.415,-0.178 -0.415,-0.398 0,-0.22 0.186,-0.399 0.415,-0.399 z"/>
        </g>
        <g id="g358" transform="translate(-7.29755,-6.48111)">
          <path id="path360" style="fill:#e6e6e6" d="m 586.305,393.2 c 0.591,0 1.071,0.46 1.071,1.027 0,0.566 -0.48,1.027 -1.071,1.027 -0.591,0 -1.071,-0.461 -1.071,-1.027 0,-0.567 0.48,-1.027 1.071,-1.027 z m 0,0.628 c 0.229,0 0.415,0.179 0.415,0.399 0,0.22 -0.186,0.398 -0.415,0.398 -0.229,0 -0.415,-0.178 -0.415,-0.398 0,-0.22 0.186,-0.399 0.415,-0.399 z"/>
        </g>
        <g id="g362" transform="translate(-4.32377,-9.45488)">
          <path id="path364" style="fill:#e6e6e6" d="m 586.305,393.2 c 0.591,0 1.071,0.46 1.071,1.027 0,0.566 -0.48,1.027 -1.071,1.027 -0.591,0 -1.071,-0.461 -1.071,-1.027 0,-0.567 0.48,-1.027 1.071,-1.027 z m 0,0.628 c 0.229,0 0.415,0.179 0.415,0.399 0,0.22 -0.186,0.398 -0.415,0.398 -0.229,0 -0.415,-0.178 -0.415,-0.398 0,-0.22 0.186,-0.399 0.415,-0.399 z"/>
        </g>
        <g id="g366" transform="translate(-4.32377,-15.5661)">
          <path id="path368" style="fill:#e6e6e6" d="m 586.305,393.2 c 0.591,0 1.071,0.46 1.071,1.027 0,0.566 -0.48,1.027 -1.071,1.027 -0.591,0 -1.071,-0.461 -1.071,-1.027 0,-0.567 0.48,-1.027 1.071,-1.027 z m 0,0.628 c 0.229,0 0.415,0.179 0.415,0.399 0,0.22 -0.186,0.398 -0.415,0.398 -0.229,0 -0.415,-0.178 -0.415,-0.398 0,-0.22 0.186,-0.399 0.415,-0.399 z"/>
        </g>
        <g id="g370" transform="translate(-4.32377,-18.5695)">
          <path id="path372" style="fill:#e6e6e6" d="m 586.305,393.2 c 0.591,0 1.071,0.46 1.071,1.027 0,0.566 -0.48,1.027 -1.071,1.027 -0.591,0 -1.071,-0.461 -1.071,-1.027 0,-0.567 0.48,-1.027 1.071,-1.027 z m 0,0.628 c 0.229,0 0.415,0.179 0.415,0.399 0,0.22 -0.186,0.398 -0.415,0.398 -0.229,0 -0.415,-0.178 -0.415,-0.398 0,-0.22 0.186,-0.399 0.415,-0.399 z"/>
        </g>
        <g id="g374" transform="translate(-7.29755,-18.5695)">
          <path id="path376" style="fill:#e6e6e6" d="m 586.305,393.2 c 0.591,0 1.071,0.46 1.071,1.027 0,0.566 -0.48,1.027 -1.071,1.027 -0.591,0 -1.071,-0.461 -1.071,-1.027 0,-0.567 0.48,-1.027 1.071,-1.027 z m 0,0.628 c 0.229,0 0.415,0.179 0.415,0.399 0,0.22 -0.186,0.398 -0.415,0.398 -0.229,0 -0.415,-0.178 -0.415,-0.398 0,-0.22 0.186,-0.399 0.415,-0.399 z"/>
        </g>
        <g id="g378" transform="translate(-7.29755,-21.5705)">
          <path id="path380" style="fill:#e6e6e6" d="m 586.305,393.2 c 0.591,0 1.071,0.46 1.071,1.027 0,0.566 -0.48,1.027 -1.071,1.027 -0.591,0 -1.071,-0.461 -1.071,-1.027 0,-0.567 0.48,-1.027 1.071,-1.027 z m 0,0.628 c 0.229,0 0.415,0.179 0.415,0.399 0,0.22 -0.186,0.398 -0.415,0.398 -0.229,0 -0.415,-0.178 -0.415,-0.398 0,-0.22 0.186,-0.399 0.415,-0.399 z"/>
        </g>
        <g id="g382" transform="translate(-7.29755,-24.9411)">
          <path id="path384" style="fill:#e6e6e6" d="m 586.305,393.2 c 0.591,0 1.071,0.46 1.071,1.027 0,0.566 -0.48,1.027 -1.071,1.027 -0.591,0 -1.071,-0.461 -1.071,-1.027 0,-0.567 0.48,-1.027 1.071,-1.027 z m 0,0.628 c 0.229,0 0.415,0.179 0.415,0.399 0,0.22 -0.186,0.398 -0.415,0.398 -0.229,0 -0.415,-0.178 -0.415,-0.398 0,-0.22 0.186,-0.399 0.415,-0.399 z"/>
        </g>
        <g id="g386" transform="translate(-10.9082,-30.7786)">
          <path id="path388" style="fill:#e6e6e6" d="m 586.305,393.2 c 0.591,0 1.071,0.46 1.071,1.027 0,0.566 -0.48,1.027 -1.071,1.027 -0.591,0 -1.071,-0.461 -1.071,-1.027 0,-0.567 0.48,-1.027 1.071,-1.027 z m 0,0.628 c 0.229,0 0.415,0.179 0.415,0.399 0,0.22 -0.186,0.398 -0.415,0.398 -0.229,0 -0.415,-0.178 -0.415,-0.398 0,-0.22 0.186,-0.399 0.415,-0.399 z"/>
        </g>
        <g id="g390" transform="translate(-13.0495,-33.2892)">
          <path id="path392" style="fill:#e6e6e6" d="m 586.305,393.2 c 0.591,0 1.071,0.46 1.071,1.027 0,0.566 -0.48,1.027 -1.071,1.027 -0.591,0 -1.071,-0.461 -1.071,-1.027 0,-0.567 0.48,-1.027 1.071,-1.027 z m 0,0.628 c 0.229,0 0.415,0.179 0.415,0.399 0,0.22 -0.186,0.398 -0.415,0.398 -0.229,0 -0.415,-0.178 -0.415,-0.398 0,-0.22 0.186,-0.399 0.415,-0.399 z"/>
        </g>
        <g id="g394" transform="translate(-10.9082,-36.6599)">
          <path id="path396" style="fill:#e6e6e6" d="m 586.305,393.2 c 0.591,0 1.071,0.46 1.071,1.027 0,0.566 -0.48,1.027 -1.071,1.027 -0.591,0 -1.071,-0.461 -1.071,-1.027 0,-0.567 0.48,-1.027 1.071,-1.027 z m 0,0.628 c 0.229,0 0.415,0.179 0.415,0.399 0,0.22 -0.186,0.398 -0.415,0.398 -0.229,0 -0.415,-0.178 -0.415,-0.398 0,-0.22 0.186,-0.399 0.415,-0.399 z"/>
        </g>
        <g id="g398" transform="translate(-13.3594,-0.162317)">
          <path id="path400" style="fill:#e6e6e6" d="m 586.305,393.2 c 0.591,0 1.071,0.46 1.071,1.027 0,0.566 -0.48,1.027 -1.071,1.027 -0.591,0 -1.071,-0.461 -1.071,-1.027 0,-0.567 0.48,-1.027 1.071,-1.027 z m 0,0.628 c 0.229,0 0.415,0.179 0.415,0.399 0,0.22 -0.186,0.398 -0.415,0.398 -0.229,0 -0.415,-0.178 -0.415,-0.398 0,-0.22 0.186,-0.399 0.415,-0.399 z"/>
        </g>
        <g id="g402" transform="translate(-10.3995,-21.5705)">
          <path id="path404" style="fill:#e6e6e6" d="m 586.305,393.2 c 0.591,0 1.071,0.46 1.071,1.027 0,0.566 -0.48,1.027 -1.071,1.027 -0.591,0 -1.071,-0.461 -1.071,-1.027 0,-0.567 0.48,-1.027 1.071,-1.027 z m 0,0.628 c 0.229,0 0.415,0.179 0.415,0.399 0,0.22 -0.186,0.398 -0.415,0.398 -0.229,0 -0.415,-0.178 -0.415,-0.398 0,-0.22 0.186,-0.399 0.415,-0.399 z"/>
        </g>
        <g id="g406" transform="translate(-13.3594,-21.5705)">
          <path id="path408" style="fill:#e6e6e6" d="m 586.305,393.2 c 0.591,0 1.071,0.46 1.071,1.027 0,0.566 -0.48,1.027 -1.071,1.027 -0.591,0 -1.071,-0.461 -1.071,-1.027 0,-0.567 0.48,-1.027 1.071,-1.027 z m 0,0.628 c 0.229,0 0.415,0.179 0.415,0.399 0,0.22 -0.186,0.398 -0.415,0.398 -0.229,0 -0.415,-0.178 -0.415,-0.398 0,-0.22 0.186,-0.399 0.415,-0.399 z"/>
        </g>
        <g id="g410" transform="translate(-6.71567,-32.825)">
          <path id="path412" style="fill:#e6e6e6" d="m 586.305,393.2 c 0.591,0 1.071,0.46 1.071,1.027 0,0.566 -0.48,1.027 -1.071,1.027 -0.591,0 -1.071,-0.461 -1.071,-1.027 0,-0.567 0.48,-1.027 1.071,-1.027 z m 0,0.628 c 0.229,0 0.415,0.179 0.415,0.399 0,0.22 -0.186,0.398 -0.415,0.398 -0.229,0 -0.415,-0.178 -0.415,-0.398 0,-0.22 0.186,-0.399 0.415,-0.399 z"/>
        </g>
        <g id="g414" transform="translate(-7.29755,-12.3405)">
          <path id="path416" style="fill:#e6e6e6" d="m 586.305,393.2 c 0.591,0 1.071,0.46 1.071,1.027 0,0.566 -0.48,1.027 -1.071,1.027 -0.591,0 -1.071,-0.461 -1.071,-1.027 0,-0.567 0.48,-1.027 1.071,-1.027 z m 0,0.628 c 0.229,0 0.415,0.179 0.415,0.399 0,0.22 -0.186,0.398 -0.415,0.398 -0.229,0 -0.415,-0.178 -0.415,-0.398 0,-0.22 0.186,-0.399 0.415,-0.399 z"/>
        </g>
        <g id="g418" transform="translate(-10.3458,-12.3405)">
          <path id="path420" style="fill:#e6e6e6" d="m 586.305,393.2 c 0.591,0 1.071,0.46 1.071,1.027 0,0.566 -0.48,1.027 -1.071,1.027 -0.591,0 -1.071,-0.461 -1.071,-1.027 0,-0.567 0.48,-1.027 1.071,-1.027 z m 0,0.628 c 0.229,0 0.415,0.179 0.415,0.399 0,0.22 -0.186,0.398 -0.415,0.398 -0.229,0 -0.415,-0.178 -0.415,-0.398 0,-0.22 0.186,-0.399 0.415,-0.399 z"/>
        </g>
        <g id="g422" transform="translate(-13.5471,-12.3405)">
          <path id="path424" style="fill:#e6e6e6" d="m 586.305,393.2 c 0.591,0 1.071,0.46 1.071,1.027 0,0.566 -0.48,1.027 -1.071,1.027 -0.591,0 -1.071,-0.461 -1.071,-1.027 0,-0.567 0.48,-1.027 1.071,-1.027 z m 0,0.628 c 0.229,0 0.415,0.179 0.415,0.399 0,0.22 -0.186,0.398 -0.415,0.398 -0.229,0 -0.415,-0.178 -0.415,-0.398 0,-0.22 0.186,-0.399 0.415,-0.399 z"/>
        </g>
        <g id="g426" transform="translate(-10.3458,-15.3887)">
          <path id="path428" style="fill:#e6e6e6" d="m 586.305,393.2 c 0.591,0 1.071,0.46 1.071,1.027 0,0.566 -0.48,1.027 -1.071,1.027 -0.591,0 -1.071,-0.461 -1.071,-1.027 0,-0.567 0.48,-1.027 1.071,-1.027 z m 0,0.628 c 0.229,0 0.415,0.179 0.415,0.399 0,0.22 -0.186,0.398 -0.415,0.398 -0.229,0 -0.415,-0.178 -0.415,-0.398 0,-0.22 0.186,-0.399 0.415,-0.399 z"/>
        </g>
        <g id="g430" transform="translate(-13.3594,-15.3887)">
          <path id="path432" style="fill:#e6e6e6" d="m 586.305,393.2 c 0.591,0 1.071,0.46 1.071,1.027 0,0.566 -0.48,1.027 -1.071,1.027 -0.591,0 -1.071,-0.461 -1.071,-1.027 0,-0.567 0.48,-1.027 1.071,-1.027 z m 0,0.628 c 0.229,0 0.415,0.179 0.415,0.399 0,0.22 -0.186,0.398 -0.415,0.398 -0.229,0 -0.415,-0.178 -0.415,-0.398 0,-0.22 0.186,-0.399 0.415,-0.399 z"/>
        </g>
        <g id="g434" transform="translate(-10.4224,-6.48111)">
          <path id="path436" style="fill:#e6e6e6" d="m 586.305,393.2 c 0.591,0 1.071,0.46 1.071,1.027 0,0.566 -0.48,1.027 -1.071,1.027 -0.591,0 -1.071,-0.461 -1.071,-1.027 0,-0.567 0.48,-1.027 1.071,-1.027 z m 0,0.628 c 0.229,0 0.415,0.179 0.415,0.399 0,0.22 -0.186,0.398 -0.415,0.398 -0.229,0 -0.415,-0.178 -0.415,-0.398 0,-0.22 0.186,-0.399 0.415,-0.399 z"/>
        </g>
        <g id="g438" transform="translate(-13.3594,-6.48111)">
          <path id="path440" style="fill:#e6e6e6" d="m 586.305,393.2 c 0.591,0 1.071,0.46 1.071,1.027 0,0.566 -0.48,1.027 -1.071,1.027 -0.591,0 -1.071,-0.461 -1.071,-1.027 0,-0.567 0.48,-1.027 1.071,-1.027 z m 0,0.628 c 0.229,0 0.415,0.179 0.415,0.399 0,0.22 -0.186,0.398 -0.415,0.398 -0.229,0 -0.415,-0.178 -0.415,-0.398 0,-0.22 0.186,-0.399 0.415,-0.399 z"/>
        </g>
        <g id="g442" transform="translate(-13.4704,2.89389)">
          <path id="path444" style="fill:#e6e6e6" d="m 586.305,393.2 c 0.591,0 1.071,0.46 1.071,1.027 0,0.566 -0.48,1.027 -1.071,1.027 -0.591,0 -1.071,-0.461 -1.071,-1.027 0,-0.567 0.48,-1.027 1.071,-1.027 z m 0,0.628 c 0.229,0 0.415,0.179 0.415,0.399 0,0.22 -0.186,0.398 -0.415,0.398 -0.229,0 -0.415,-0.178 -0.415,-0.398 0,-0.22 0.186,-0.399 0.415,-0.399 z"/>
        </g>
        <g id="g446" transform="translate(5.03752,-0.123602)">
          <path id="path448" style="fill:#e6e6e6" d="m 586.305,393.2 c 0.591,0 1.071,0.46 1.071,1.027 0,0.566 -0.48,1.027 -1.071,1.027 -0.591,0 -1.071,-0.461 -1.071,-1.027 0,-0.567 0.48,-1.027 1.071,-1.027 z m 0,0.628 c 0.229,0 0.415,0.179 0.415,0.399 0,0.22 -0.186,0.398 -0.415,0.398 -0.229,0 -0.415,-0.178 -0.415,-0.398 0,-0.22 0.186,-0.399 0.415,-0.399 z"/>
        </g>
        <g id="g450" transform="translate(-7.39881,2.89389)">
          <path id="path452" style="fill:#e6e6e6" d="m 586.305,393.2 c 0.591,0 1.071,0.46 1.071,1.027 0,0.566 -0.48,1.027 -1.071,1.027 -0.591,0 -1.071,-0.461 -1.071,-1.027 0,-0.567 0.48,-1.027 1.071,-1.027 z m 0,0.628 c 0.229,0 0.415,0.179 0.415,0.399 0,0.22 -0.186,0.398 -0.415,0.398 -0.229,0 -0.415,-0.178 -0.415,-0.398 0,-0.22 0.186,-0.399 0.415,-0.399 z"/>
        </g>
        <g id="g454" transform="translate(5.03752,5.17971)">
          <path id="path456" style="fill:#e6e6e6" d="m 586.305,393.2 c 0.591,0 1.071,0.46 1.071,1.027 0,0.566 -0.48,1.027 -1.071,1.027 -0.591,0 -1.071,-0.461 -1.071,-1.027 0,-0.567 0.48,-1.027 1.071,-1.027 z m 0,0.628 c 0.229,0 0.415,0.179 0.415,0.399 0,0.22 -0.186,0.398 -0.415,0.398 -0.229,0 -0.415,-0.178 -0.415,-0.398 0,-0.22 0.186,-0.399 0.415,-0.399 z"/>
        </g>
        <g id="g458" transform="translate(-4.32377,-0.160833)">
          <path id="path460" style="fill:#e6e6e6" d="m 586.305,393.2 c 0.591,0 1.071,0.46 1.071,1.027 0,0.566 -0.48,1.027 -1.071,1.027 -0.591,0 -1.071,-0.461 -1.071,-1.027 0,-0.567 0.48,-1.027 1.071,-1.027 z m 0,0.628 c 0.229,0 0.415,0.179 0.415,0.399 0,0.22 -0.186,0.398 -0.415,0.398 -0.229,0 -0.415,-0.178 -0.415,-0.398 0,-0.22 0.186,-0.399 0.415,-0.399 z"/>
        </g>
      </g>
      <path d="M 98.870387,18.512179 97.985298,17.625775 V 10.421438 L 94.377869,6.814009 V 1.2036217" style="fill:none;stroke:#e6e6e6;stroke-width:0.68556154px" id="path464"/>
      <path d="m 174.71583,40.653876 1.7373,1.735985 h 1.54003" style="fill:none;stroke:#e6e6e6;stroke-width:0.68556154px" id="path466"/>
      <path d="m 173.90044,38.886328 v -2.258095 l 0.81539,-0.815387" style="fill:none;stroke:#e6e6e6;stroke-width:0.68556154px" id="path468"/>
      <path d="m 101.45464,46.343172 v -3.047179 l 3.26418,-3.264178" style="fill:none;stroke:#e6e6e6;stroke-width:0.68556154px" id="path470"/>
      <path d="m 105.13703,30.570698 -0.70492,-0.70623 v -7.095181 l 0.61023,-0.610224 v -6.608579 l -1.09683,-1.096827 V 7.1086003 l -3.35755,-3.3575524 v -3.278644" style="fill:none;stroke:#e6e6e6;stroke-width:0.68556154px" id="path472"/>
      <path d="M 138.63233,38.949455 V 22.986286 l 4.79895,-4.800261" style="fill:none;stroke:#e6e6e6;stroke-width:2.25663996px;stroke-linecap:butt" id="path474"/>
      <path d="m 143.43128,43.484058 -3.84284,-3.842839 v -1.344074" style="fill:none;stroke:#e6e6e6;stroke-width:0.68556154px" id="path476"/>
      <path d="m 148.71156,41.047103 2.37646,2.377773" style="fill:none;stroke:#e6e6e6;stroke-width:0.68556154px" id="path478"/>
      <path d="m 158.66717,35.123713 1.60184,-1.600526 V 21.417324 l 1.21651,-1.216505 v -1.124445" style="fill:none;stroke:#e6e6e6;stroke-width:0.68556154px" id="path480"/>
      <path d="M 157.95831,30.322136 V 28.66769 l 1.06132,-1.061318 v -7.646224" style="fill:none;stroke:#e6e6e6;stroke-width:0.68556154px" id="path482"/>
      <path d="m 154.35483,36.861013 v 2.088442 l 0.52079,0.520795" style="fill:none;stroke:#e6e6e6;stroke-width:0.68556154px" id="path484"/>
      <path d="m 154.35483,34.923811 v -5.655102 l 2.96038,-2.96038 v -8.339303 l 1.35196,-1.351963" style="fill:none;stroke:#e6e6e6;stroke-width:0.68556154px" id="path486"/>
      <path d="M 166.31866,30.456281 V 23.772739" style="fill:none;stroke:#e6e6e6;stroke-width:0.68556154px" id="path488"/>
      <path d="m 100.16712,130.04131 -1.203358,1.20467 v 24.99555" style="fill:none;stroke:#e6e6e6;stroke-width:0.68556154px" id="path490"/>
      <path d="M 140.5064,8.1686032 137.92347,5.5843531" style="fill:none;stroke:#e6e6e6;stroke-width:0.68556154px" id="path492"/>
      <path d="m 104.01653,122.33591 v 20.98042 l 6.76113,6.76114 v 20.98963" style="fill:none;stroke:#e6e6e6;stroke-width:0.68556154px" id="path494"/>
      <path d="m 110.04908,103.84109 v 7.32402 l -3.4654,3.46539 v 5.0554 l -10.037145,10.03846" style="fill:none;stroke:#e6e6e6;stroke-width:0.68556154px" id="path496"/>
      <path d="m 97.268547,115.53532 8.289323,-8.28801 h 1.98324 v 3.46144 l -3.27602,3.27602 v 4.39388 l -7.718555,7.71987" style="fill:none;stroke:#e6e6e6;stroke-width:1.35684049px" id="path498"/>
      <path d="m 143.90604,19.076374 1.13628,-1.136281 1.0679,-1.067893 V 8.8261732" style="fill:none;stroke:#e6e6e6;stroke-width:0.68556154px" id="path500"/>
      <path d="m 142.31209,17.95456 1.24675,-1.245438 V 7.7056739" style="fill:none;stroke:#e6e6e6;stroke-width:0.68556154px" id="path502"/>
      <path d="m 124.55244,43.735249 -2.48693,-2.697352 V 19.562976 l 2.89068,-2.890678 V 2.2636246" style="fill:none;stroke:#e6e6e6;stroke-width:1.81388152px;stroke-linecap:butt" id="path504"/>
      <path d="m 157.95831,36.778159 v 2.636855 l 4.32024,4.320235" style="fill:none;stroke:#e6e6e6;stroke-width:0.68556154px" id="path506"/>
      <path d="m 128.22563,43.349913 -3.05376,-3.053755 v -19.67844 l 2.95381,-2.953804 V 2.9803759" style="fill:none;stroke:#e6e6e6;stroke-width:0.68556154px" id="path508"/>
      <path d="m 161.041,38.562804 v 1.146802 l 1.77281,1.772809 h 1.92536 l 1.88723,1.887225" style="fill:none;stroke:#e6e6e6;stroke-width:0.68556154px" id="path510"/>
      <path d="m 165.83206,38.562804 v 1.3204 l 1.08367,1.083676 h 1.73204 l 2.21733,2.216011" style="fill:none;stroke:#e6e6e6;stroke-width:0.68556154px" id="path512"/>
      <path d="M 115.03214,13.526484 V 4.61641 L 111.94551,1.5297765 V 0.7485833" style="fill:none;stroke:#e6e6e6;stroke-width:0.68556154px" id="path514"/>
      <path d="M 117.07587,10.092653 V 4.4349207 l -3.5877,-3.58638676" style="fill:none;stroke:#e6e6e6;stroke-width:0.68556154px" id="path516"/>
      <path d="m 117.07587,34.4885 -1.54134,-1.541344 v -7.705405 l 2.56978,-2.569784 v -4.37284 L 120.65042,15.7517 V 3.0290361 L 119.163,1.5402976" style="fill:none;stroke:#e6e6e6;stroke-width:0.68556154px" id="path518"/>
      <path d="m 87.064376,82.210985 h 4.869963 l 1.59658,1.595265 v 10.699979" style="fill:none;stroke:#e6e6e6;stroke-width:0.68556154px" id="path520"/>
      <path d="m 85.963603,78.728494 h 8.206474" style="fill:none;stroke:#e6e6e6;stroke-width:1.81388152px" id="path522"/>
      <path d="m 94.170077,78.728494 3.024822,3.026138 V 95.07437 l -5.26056,5.26056" style="fill:none;stroke:#e6e6e6;stroke-width:1.81388152px" id="path524"/>
      <path d="M 109.54406,42.964577 V 40.653876" style="fill:none;stroke:#e6e6e6;stroke-width:0.68556154px" id="path526"/>
      <path d="m 108.64056,58.875141 -3.63767,-3.637677 v -9.079727 l 2.09633,-2.095018 1.33355,-0.0013" style="fill:none;stroke:#e6e6e6;stroke-width:0.68556154px" id="path528"/>
      <path d="m 110.18191,62.813985 4.62403,-4.624032 V 47.434738" style="fill:none;stroke:#e6e6e6;stroke-width:0.68556154px" id="path530"/>
      <path d="m 108.64056,47.434738 h 1.81884 l 3.22078,-3.219463 -2.02137,-2.02137 v -3.71264 l -1.19941,-1.199408 v -4.334701 l 1.26385,-1.262534 V 20.617718 l 2.03452,-2.034521" style="fill:none;stroke:#e6e6e6;stroke-width:0.68556154px" id="path532"/>
      <path d="m 109.58483,58.604222 v -8.703596 l -1.44797,-1.447969" style="fill:none;stroke:#e6e6e6;stroke-width:0.68556154px" id="path534"/>
      <path d="m 101.3126,34.4885 -1.918787,-1.918789 v -9.90432 l 2.047677,-2.047673 V 17.926942 L 99.50823,15.995001 V 9.829625 L 95.833729,6.1551238 V 0.96689654" style="fill:none;stroke:#e6e6e6;stroke-width:0.68556154px" id="path536"/>
      <path d="m 101.44149,30.458911 v -7.9395 l 1.18625,-1.187572 v -4.308398 l -1.52951,-1.529508 V 8.9866203 L 97.436885,5.3252705 V 0.76568012" style="fill:none;stroke:#e6e6e6;stroke-width:0.68556154px" id="path538"/>
      <path d="m 102.35156,38.562804 1.25465,-1.254644 v -6.849249 l -0.97847,-0.978464 v -6.499422 l 1.20862,-1.208614 v -5.77741 l -1.20862,-1.208613 V 8.2882809 L 99.004532,4.6650702 V 0.58287566" style="fill:none;stroke:#e6e6e6;stroke-width:0.68556154px" id="path540"/>
      <path d="M 97.272492,58.577919 V 51.39594 l -4.044055,-4.044056 h -9.24675 l -3.082688,-3.082688" style="fill:none;stroke:#e6e6e6;stroke-width:0.68556154px" id="path542"/>
      <path d="m 89.164654,64.497365 -2.100278,2.100278 -6.408678,0.02499" style="fill:none;stroke:#e6e6e6;stroke-width:0.68556154px" id="path544"/>
      <path d="M 88.60572,50.50296 87.439191,49.336431 H 83.39382 L 80.898999,46.84161" style="fill:none;stroke:#e6e6e6;stroke-width:0.68556154px" id="path546"/>
      <path d="M 84.38149,51.251274 H 83.435904 L 80.856915,48.672285" style="fill:none;stroke:#e6e6e6;stroke-width:0.68556154px" id="path548"/>
      <path d="M 88.46763,54.937612 88.053361,54.523343 H 83.589776 L 80.817461,51.751028" style="fill:none;stroke:#e6e6e6;stroke-width:0.68556154px" id="path550"/>
      <path d="m 92.515631,51.686586 -1.855663,1.854347 h -6.67828 l -3.579812,-3.579811" style="fill:none;stroke:#e6e6e6;stroke-width:0.68556154px" id="path552"/>
      <path d="m 92.560346,68.559832 -1.643925,1.643925" style="fill:none;stroke:#e6e6e6;stroke-width:0.68556154px" id="path554"/>
      <path d="m 127.88501,30.427348 v -2.681571 l -1.40852,-1.4072 v -5.257929 l 3.08795,-3.087949 V 3.4091115" style="fill:none;stroke:#e6e6e6;stroke-width:0.68556154px" id="path556"/>
      <path d="M 80.898999,70.203757 H 90.916421" style="fill:none;stroke:#e6e6e6;stroke-width:0.68556154px" id="path558"/>
      <path d="M 84.246031,63.649099 H 83.421438 L 79.952099,60.178445" style="fill:none;stroke:#e6e6e6;stroke-width:0.68556154px" id="path560"/>
      <path d="m 97.852469,64.302724 1.779384,1.697846" style="fill:none;stroke:#e6e6e6;stroke-width:0.68556154px" id="path562"/>
      <path d="M 88.47026,68.07323 H 80.655698" style="fill:none;stroke:#e6e6e6;stroke-width:0.68556154px" id="path564"/>
      <path d="M 92.560346,62.896839 91.33595,61.801328 h -3.045864 l -0.84432,0.844319 v 2.285714 l -0.74963,0.748314 h -6.295575" style="fill:none;stroke:#e6e6e6;stroke-width:0.68556154px" id="path566"/>
      <path d="m 96.716188,71.789816 2.915665,-2.795988 V 66.00057" style="fill:none;stroke:#e6e6e6;stroke-width:0.68556154px" id="path568"/>
      <path d="m 82.848037,73.332475 12.888372,0.04471 z" style="fill:none;stroke:#e6e6e6;stroke-width:0.68556154px" id="path570"/>
      <path d="m 121.11204,43.217084 -6.87687,-6.878182" style="fill:none;stroke:#e6e6e6;stroke-width:0.68556154px" id="path572"/>
      <path d="m 113.93269,34.284653 v -9.664964 l 2.57767,-2.577674 v -4.643759 l 2.52112,-2.521124 V 4.0956146 l -2.95117,-2.9511742" style="fill:none;stroke:#e6e6e6;stroke-width:0.68556154px" id="path574"/>
      <path d="m 120.08491,43.946987 -6.3758,-6.375799" style="fill:none;stroke:#e6e6e6;stroke-width:0.68556154px" id="path576"/>
      <path d="m 113.70911,37.571188 h -1.18494 l -0.80092,-0.802235 v -2.810454 l 1.01003,-1.011343 V 22.159062" style="fill:none;stroke:#e6e6e6;stroke-width:0.68556154px" id="path578"/>
      <path d="m 166.65007,36.976745 2.48825,-2.488245 v -3.748149 l -1.41115,-1.41246 v -3.928324" style="fill:none;stroke:#e6e6e6;stroke-width:0.68556154px" id="path580"/>
      <path d="m 106.27463,34.634481 1.41772,-1.419037 v -2.794672 l -1.99244,-1.993752 v -5.606442 l 0.36561,-0.366924 v -7.513395 l -0.50765,-0.507644 V 6.5575567 L 102.07933,3.0790114 V 0.38297438" style="fill:none;stroke:#e6e6e6;stroke-width:0.68556154px" id="path582"/>
      <path d="M 104.01653,2.2978182 103.52204,1.8033256 V 0.34878074" style="fill:none;stroke:#e6e6e6;stroke-width:0.68556154px" id="path584"/>
      <path d="m 107.62264,12.912313 -0.52342,-0.523426 V 0.43821026" style="fill:none;stroke:#e6e6e6;stroke-width:0.68556154px" id="path586"/>
      <path d="m 108.82731,16.810388 1.69916,-1.700476 V 11.370969 L 108.64056,9.4850583 V 0.50659754" style="fill:none;stroke:#e6e6e6;stroke-width:0.68556154px" id="path588"/>
      <path d="m 109.669,26.463516 v -5.484134 l 2.20023,-2.198914 v -1.733355 l 1.52819,-1.529508 V 5.5304323 L 110.4068,2.539804 V 0.58287566" style="fill:none;stroke:#e6e6e6;stroke-width:0.68556154px" id="path590"/>
      <path d="m 100.78655,82.413517 -0.73517,0.733848 v 17.087615 l -5.823437,5.82475" style="fill:none;stroke:#e6e6e6;stroke-width:0.68556154px" id="path592"/>
      <path d="m 109.58483,67.623452 v 7.851386 l -2.71971,2.71971 v 17.941139 l -1.67417,1.672859 v 4.954134 l -7.085974,7.08729" style="fill:none;stroke:#e6e6e6;stroke-width:0.68556154px" id="path594"/>
      <path d="M 100.93516,80.723562 95.875814,75.664218 H 82.440343" style="fill:none;stroke:#e6e6e6;stroke-width:0.68556154px" id="path596"/>
      <path d="m 101.25605,74.73836 v -8.086796 l 1.91353,-1.912214 v -3.122142 l -1.05606,-1.056058 v -6.374483" style="fill:none;stroke:#e6e6e6;stroke-width:0.68556154px" id="path598"/>
      <path d="M 96.416336,18.305702 V 11.177643 L 92.820743,7.5820507 V 1.4456075" style="fill:none;stroke:#e6e6e6;stroke-width:0.68556154px" id="path600"/>
      <path d="M 94.940749,15.918723 V 12.266579 L 91.246521,8.5736663 V 1.7217869" style="fill:none;stroke:#e6e6e6;stroke-width:0.68556154px" id="path602"/>
      <path d="m 101.07851,62.53123 -0.0105,-3.383855 -1.674177,-1.674173 V 34.4885 L 97.39219,32.486857 v -6.34029 l -5.315796,-5.315796 v -6.988654" style="fill:none;stroke:#e6e6e6;stroke-width:0.68556154px" id="path604"/>
      <path d="M 88.613611,18.337266 V 15.138845 L 86.387079,12.912313 V 2.7831049" style="fill:none;stroke:#e6e6e6;stroke-width:0.68556154px" id="path606"/>
      <path d="M 88.129639,10.696302 V 2.351739" style="fill:none;stroke:#e6e6e6;stroke-width:0.68556154px" id="path608"/>
      <g transform="matrix(1.31514,0,0,1.31514,-668.30835,-458.689)" id="g610">
        <path d="m 571.535,351.339 v 7.735" style="fill:none;stroke:#e6e6e6;stroke-width:0.52128404px" id="path612"/>
      </g>
      <g transform="matrix(1.31514,0,0,1.31514,-668.32538,-458.689)" id="g614">
        <path d="m 570.41,351.563 v 3.643" style="fill:none;stroke:#e6e6e6;stroke-width:0.52128404px" id="path616"/>
      </g>
      <path d="M 85.338912,14.954726 84.836529,14.453657 V 3.0132544" style="fill:none;stroke:#e6e6e6;stroke-width:0.68556154px" id="path618"/>
      <path d="m 161.72487,36.861013 0.85747,-0.856157 V 20.043002" style="fill:none;stroke:#e6e6e6;stroke-width:0.68556154px" id="path620"/>
      <path d="m 101.06799,130.30039 v 14.56386 l 6.32977,6.32977 v 16.89035" style="fill:none;stroke:#e6e6e6;stroke-width:0.68556154px" id="path622"/>
      <path d="m 170.28775,36.641384 v -3.694228 l 1.68338,-1.683379" style="fill:none;stroke:#e6e6e6;stroke-width:0.68556154px" id="path624"/>
      <path d="m 171.12944,36.976745 0.56682,-0.56551 v -2.179187 l 1.34408,-1.344073" style="fill:none;stroke:#e6e6e6;stroke-width:0.68556154px" id="path626"/>
      <path d="m 170.28775,38.540446 v 1.617623 l 4.9081,4.908102 h 3.94937" style="fill:none;stroke:#e6e6e6;stroke-width:0.68556154px" id="path628"/>
      <path d="M 96.582044,38.607518 94.004369,36.029844" style="fill:none;stroke:#e6e6e6;stroke-width:0.68556154px" id="path630"/>
      <path d="m 92.612951,34.685771 -1.311194,-1.31251 V 30.055163 L 82.92563,21.680352" style="fill:none;stroke:#e6e6e6;stroke-width:0.68556154px" id="path632"/>
      <path d="M 88.60572,30.687745 86.241098,28.324439 H 81.84327" style="fill:none;stroke:#e6e6e6;stroke-width:0.68556154px" id="path634"/>
      <path d="M 85.224495,30.454966 H 81.876148" style="fill:none;stroke:#e6e6e6;stroke-width:0.68556154px" id="path636"/>
      <path d="M 93.362581,30.454966 V 29.864468 L 82.834885,19.338087" style="fill:none;stroke:#e6e6e6;stroke-width:0.68556154px" id="path638"/>
      <path d="M 92.658981,26.31622 82.684959,16.342198" style="fill:none;stroke:#e6e6e6;stroke-width:0.68556154px" id="path640"/>
      <path d="M 88.60572,42.943535 87.064376,41.402191 H 81.643369" style="fill:none;stroke:#e6e6e6;stroke-width:0.68556154px" id="path642"/>
      <path d="M 84.448562,39.376875 H 82.933521 L 81.742004,38.185359" style="fill:none;stroke:#e6e6e6;stroke-width:0.68556154px" id="path644"/>
      <path d="M 89.352719,38.52598 V 37.571188 L 87.486536,35.705004 H 83.737071 L 81.742004,33.709937" style="fill:none;stroke:#e6e6e6;stroke-width:0.68556154px" id="path646"/>
      <path d="M 96.549165,46.658806 94.081963,44.191603" style="fill:none;stroke:#e6e6e6;stroke-width:0.68556154px" id="path648"/>
      <path d="m 92.620842,44.191603 -1.233601,1.233601 H 83.981687 L 81.406643,42.85016" style="fill:none;stroke:#e6e6e6;stroke-width:0.68556154px" id="path650"/>
      <path d="M 93.362581,42.575296 V 39.112532 L 88.208547,33.958499 H 84.232879 L 81.680192,31.405812" style="fill:none;stroke:#e6e6e6;stroke-width:0.68556154px" id="path652"/>
      <path d="m 88.499193,59.577426 -1.970079,1.970079 h -2.547427 l -4.029588,-4.029588" style="fill:none;stroke:#e6e6e6;stroke-width:0.68556154px" id="path654"/>
      <path d="M 84.411738,59.560329 H 83.546376 L 79.952099,55.966051" style="fill:none;stroke:#e6e6e6;stroke-width:0.68556154px" id="path656"/>
      <path d="m 92.798386,56.761711 -0.84432,0.84432 h -5.255299 l -1.011343,-1.010028 h -0.361663 -2.885418 l -2.269931,-2.271246" style="fill:none;stroke:#e6e6e6;stroke-width:0.68556154px" id="path658"/>
      <path d="m 97.081797,34.297805 -1.216504,-1.21782 V 26.31622 L 90.878282,21.329209 V 10.493771 l -1.12839,-1.1270753 v -7.242476" style="fill:none;stroke:#e6e6e6;stroke-width:0.68556154px" id="path660"/>
      <path d="M 80.346641,4.0495847 V 6.3616008" style="fill:none;stroke:#e6e6e6;stroke-width:0.68556154px" id="path662"/>
      <path d="m 113.62363,44.215275 h 2.23705" style="fill:none;stroke:#e6e6e6;stroke-width:0.68556154px" id="path664"/>
      <path d="m 102.14246,52.212642 v -1.541344 l 1.38878,-1.388788 v -4.147952 l 4.03617,-4.036164 v -3.204997 l 1.57028,-1.570277 v -6.396841 l -2.16867,-2.168666 v -5.598551 l 3.57455,-3.575865 v -1.821469 l 1.17968,-1.178366 V 8.3514076" style="fill:none;stroke:#e6e6e6;stroke-width:0.68556154px" id="path666"/>
      <path d="M 96.984477,67.117123 95.328715,65.312751" style="fill:none;stroke:#e6e6e6;stroke-width:0.68556154px" id="path668"/>
      <path d="m 95.328715,61.459391 v 3.85336" style="fill:none;stroke:#e6e6e6;stroke-width:0.68556154px" id="path670"/>
      <path d="m 110.18191,65.845383 7.08597,-7.085974 V 45.276593" style="fill:none;stroke:#e6e6e6;stroke-width:0.68556154px" id="path672"/>
      <path d="m 106.2641,62.799519 2.37646,-2.376458" style="fill:none;stroke:#e6e6e6;stroke-width:0.68556154px" id="path674"/>
      <path d="m 110.4068,58.851468 1.95298,-1.951667 v -8.540519 l 1.54003,-1.541345" style="fill:none;stroke:#e6e6e6;stroke-width:0.68556154px" id="path676"/>
      <path d="m 105.55787,64.509201 v 0.80355 l -2.15419,2.152884 v 1.373007 l 2.15419,2.154199 v 24.777238 l -1.54134,1.541344 v 4.989637 l -6.782177,6.78218" style="fill:none;stroke:#e6e6e6;stroke-width:0.68556154px" id="path678"/>
      <path d="m 103.82847,73.486346 v 21.107997 l -1.91353,1.914844 v 4.816043 l -5.238206,5.23689" style="fill:none;stroke:#e6e6e6;stroke-width:0.68556154px" id="path680"/>
      <path d="m 95.328715,61.459391 1.186257,-1.294098" style="fill:none;stroke:#e6e6e6;stroke-width:0.68556154px" id="path682"/>
      <path d="m 165.06401,36.861013 -0.83116,-0.831169 V 21.676406" style="fill:none;stroke:#e6e6e6;stroke-width:0.68556154px" id="path684"/>
      <path d="m 152.49654,41.040527 2.37908,2.380404" style="fill:none;stroke:#e6e6e6;stroke-width:0.68556154px" id="path686"/>
      <path d="m 156.41697,41.040527 2.3804,2.380404" style="fill:none;stroke:#e6e6e6;stroke-width:0.68556154px" id="path688"/>
      <path d="m 151.79425,39.336106 v -5.538055 l 1.15338,-1.153377 V 24.67361 l -1.85961,-1.858293 v -9.903004 l 0.95874,-0.958737" style="fill:none;stroke:#e6e6e6;stroke-width:0.68556154px" id="path690"/>
      <path d="m 140.33281,43.206563 v -1.012658 l -1.70048,-1.700476 v -2.16472" style="fill:none;stroke:#e6e6e6;stroke-width:0.68556154px" id="path692"/>
      <path d="m 136.48865,43.113188 v -2.056879 l 1.18363,-1.194147 v -1.549235" style="fill:none;stroke:#e6e6e6;stroke-width:0.68556154px" id="path694"/>
      <path d="m 142.93547,18.66342 1.82936,-1.829359 V 8.1870151" style="fill:none;stroke:#e6e6e6;stroke-width:0.68556154px" id="path696"/>
      <path d="m 147.43851,43.424876 -3.51406,-3.512739" style="fill:none;stroke:#e6e6e6;stroke-width:0.68556154px" id="path698"/>
      <path d="m 145.90637,28.580891 v 3.335195 l -1.98192,1.981916 v 6.014135" style="fill:none;stroke:#e6e6e6;stroke-width:0.68556154px" id="path700"/>
      <path d="m 148.0198,39.3703 v -3.531151 l 3.37991,-3.37991 v -7.217488 l -1.73467,-1.735985 V 12.390203 l 1.18757,-1.186257" style="fill:none;stroke:#e6e6e6;stroke-width:0.68556154px" id="path702"/>
      <path d="m 171.82909,44.932027 2.55927,2.559262 h 5.71033" style="fill:none;stroke:#e6e6e6;stroke-width:0.68556154px" id="path704"/>
      <path d="m 108.64056,102.89814 h -1.9372 l -9.056053,9.05605" style="fill:none;stroke:#e6e6e6;stroke-width:0.68556154px" id="path706"/>
      <path d="m 97.852469,117.26078 3.853361,-3.85336 v 3.91386 l -4.245273,4.24395" style="fill:none;stroke:#e6e6e6;stroke-width:0.68556154px" id="path708"/>
      <path d="m 128.80034,43.157903 v -9.120496 l 1.09025,-1.090251 V 22.594374" style="fill:none;stroke:#e6e6e6;stroke-width:0.68556154px" id="path710"/>
      <path d="m 132.76418,36.27183 -1.47428,1.475587 v 4.93309 l 0.77462,0.775933" style="fill:none;stroke:#e6e6e6;stroke-width:0.68556154px" id="path712"/>
      <path d="m 132.6445,43.157903 v -1.59132 l 0.65494,-0.654939" style="fill:none;stroke:#e6e6e6;stroke-width:0.68556154px" id="path714"/>
      <path d="m 134.42783,39.112532 1.9543,-1.954298 V 21.489656 l 4.81867,-4.818673 v -6.548082" style="fill:none;stroke:#e6e6e6;stroke-width:0.68556154px" id="path716"/>
      <path d="M 133.78341,34.863315 V 20.617718 l 4.0309,-4.029589 v -6.465228" style="fill:none;stroke:#e6e6e6;stroke-width:0.68556154px" id="path718"/>
      <path d="m 130.21675,20.617718 4.62403,-4.622717 V 9.058953 h 1.85172" style="fill:none;stroke:#e6e6e6;stroke-width:0.68556154px" id="path720"/>
      <path d="m 130.93482,3.6655638 3.90596,3.9059658" style="fill:none;stroke:#e6e6e6;stroke-width:0.68556154px" id="path722"/>
      <path d="m 148.20129,21.127993 -5.52227,5.522273 z" style="fill:none;stroke:#e6e6e6;stroke-width:0.68556154px" id="path724"/>
      <path d="M 148.20129,9.829625 V 21.127993" style="fill:none;stroke:#e6e6e6;stroke-width:0.68556154px" id="path726"/>
      <path d="m 142.02408,28.56774 v 11.51142 l 2.11474,2.114745 v 0.98241" style="fill:none;stroke:#e6e6e6;stroke-width:0.68556154px" id="path728"/>
      <path d="m 146.61918,34.4885 2.45536,-2.455366 v -4.485943 h -1.90432" style="fill:none;stroke:#e6e6e6;stroke-width:0.68556154px" id="path730"/>
      <path d="M 134.84078,7.5715296 V 9.058953" style="fill:none;stroke:#e6e6e6;stroke-width:0.68556154px" id="path732"/>
      <path id="path4462" style="clip-rule:evenodd;fill:#e6e6e6;fill-rule:evenodd;stroke-linecap:round;stroke-linejoin:round;stroke-miterlimit:1.5" d="m 117.46952,62.028969 c 0.5648,0.533962 0.60792,1.407244 0.0956,1.949107 -0.51138,0.540908 -1.3866,0.547796 -1.9514,0.01383 -0.5648,-0.533962 -0.60701,-1.4082 -0.0956,-1.949108 0.51228,-0.541863 1.3866,-0.547795 1.9514,-0.01383 z m -0.56739,0.600159 c 0.21885,0.206899 0.23488,0.546013 0.0361,0.756259 -0.19877,0.210247 -0.53734,0.212307 -0.75619,0.0054 -0.21885,-0.206899 -0.23578,-0.545057 -0.037,-0.755304 0.19877,-0.210247 0.53824,-0.213262 0.75709,-0.0064 z"/>
      <path id="path4464" style="fill:none;stroke:#e6e6e6;stroke-width:0.68556154px" d="M 121.39984,56.696524 121.25952,45.591387"/>
      <path id="path4971" style="clip-rule:evenodd;fill:#e6e6e6;fill-rule:evenodd;stroke-linecap:round;stroke-linejoin:round;stroke-miterlimit:1.5" d="m 130.01189,50.658425 c 0.5648,0.533962 0.60792,1.407244 0.0956,1.949107 -0.51137,0.540908 -1.3866,0.547796 -1.9514,0.01383 -0.5648,-0.533962 -0.60701,-1.4082 -0.0956,-1.949108 0.51228,-0.541863 1.3866,-0.547795 1.9514,-0.01383 z m -0.56739,0.600159 c 0.21885,0.206899 0.23488,0.546013 0.0361,0.756259 -0.19876,0.210247 -0.53734,0.212307 -0.75619,0.0054 -0.21885,-0.206899 -0.23578,-0.545057 -0.037,-0.755304 0.19877,-0.210247 0.53825,-0.213262 0.75709,-0.0064 z"/>
      <path id="path4973" style="fill:none;stroke:#e6e6e6;stroke-width:0.68556154px" d="M 129.03809,50.555411 128.89776,45.5887"/>
      <path d="m 126.15225,57.078976 c 0.5648,0.533962 0.60792,1.407244 0.0956,1.949107 -0.51138,0.540908 -1.3866,0.547796 -1.9514,0.01383 -0.5648,-0.533962 -0.60701,-1.4082 -0.0956,-1.949108 0.51228,-0.541863 1.3866,-0.547795 1.9514,-0.01383 z m -0.56739,0.600159 c 0.21885,0.206899 0.23488,0.546013 0.0361,0.756259 -0.19877,0.210247 -0.53734,0.212307 -0.75619,0.0054 -0.21885,-0.206899 -0.23578,-0.545057 -0.037,-0.755304 0.19877,-0.210247 0.53824,-0.213262 0.75709,-0.0064 z" style="clip-rule:evenodd;fill:#e6e6e6;fill-rule:evenodd;stroke-linecap:round;stroke-linejoin:round;stroke-miterlimit:1.5" id="path4977"/>
      <path d="M 125.12309,56.585825 124.98277,45.480688" style="fill:none;stroke:#e6e6e6;stroke-width:0.68556154px" id="path4979"/>
      <path d="m 117.38118,61.824354 3.96345,-5.015506" style="fill:none;stroke:#e6e6e6;stroke-width:0.68556148px" id="path4981"/>
      <path d="m 133.88636,48.333743 c 0.5648,0.533962 0.60792,1.407244 0.0956,1.949107 -0.51137,0.540908 -1.3866,0.547796 -1.9514,0.01383 -0.5648,-0.533962 -0.60701,-1.4082 -0.0956,-1.949108 0.51228,-0.541863 1.3866,-0.547795 1.9514,-0.01383 z m -0.56739,0.600159 c 0.21885,0.206899 0.23488,0.546013 0.0361,0.756259 -0.19876,0.210247 -0.53734,0.212307 -0.75619,0.0054 -0.21885,-0.206899 -0.23578,-0.545057 -0.037,-0.755304 0.19877,-0.210247 0.53825,-0.213262 0.75709,-0.0064 z" style="clip-rule:evenodd;fill:#e6e6e6;fill-rule:evenodd;stroke-linecap:round;stroke-linejoin:round;stroke-miterlimit:1.5" id="path4985"/>
      <path d="m 132.80186,48.563601 -0.14033,-3.197074" style="fill:none;stroke:#e6e6e6;stroke-width:0.68556154px" id="path4987"/>
    </g>
  </g>
</svg>